<svg width="51" height="50" viewBox="0 0 51 50" fill="none" xmlns="http://www.w3.org/2000/svg">
<path d="M20.6803 16.3593H16.8056C16.5995 16.3593 16.4018 16.2774 16.256 16.1316C16.1102 15.9859 16.0283 15.7881 16.0283 15.582C16.0283 15.3758 16.1102 15.1781 16.256 15.0324C16.4018 14.8866 16.5995 14.8047 16.8056 14.8047H20.6803C20.8864 14.8047 21.0841 14.8866 21.2299 15.0324C21.3757 15.1781 21.4576 15.3758 21.4576 15.582C21.4576 15.7881 21.3757 15.9859 21.2299 16.1316C21.0841 16.2774 20.8864 16.3593 20.6803 16.3593ZM20.6803 21.1203H11.505C11.2989 21.1203 11.1012 21.0384 10.9554 20.8926C10.8096 20.7468 10.7277 20.5491 10.7277 20.343C10.7277 20.1368 10.8096 19.9391 10.9554 19.7933C11.1012 19.6475 11.2989 19.5657 11.505 19.5657H20.6803C20.8864 19.5657 21.0841 19.6475 21.2299 19.7933C21.3757 19.9391 21.4576 20.1368 21.4576 20.343C21.4576 20.5491 21.3757 20.7468 21.2299 20.8926C21.0841 21.0384 20.8864 21.1203 20.6803 21.1203ZM20.6803 25.8812H11.505C11.2989 25.8812 11.1012 25.7993 10.9554 25.6536C10.8096 25.5078 10.7277 25.3101 10.7277 25.1039C10.7277 24.8978 10.8096 24.7001 10.9554 24.5543C11.1012 24.4085 11.2989 24.3266 11.505 24.3266H20.6803C20.8864 24.3266 21.0841 24.4085 21.2299 24.5543C21.3757 24.7001 21.4576 24.8978 21.4576 25.1039C21.4576 25.3101 21.3757 25.5078 21.2299 25.6536C21.0841 25.7993 20.8864 25.8812 20.6803 25.8812ZM20.6803 30.6422H11.505C11.2989 30.6422 11.1012 30.5603 10.9554 30.4145C10.8096 30.2688 10.7277 30.071 10.7277 29.8649C10.7277 29.6587 10.8096 29.461 10.9554 29.3153C11.1012 29.1695 11.2989 29.0876 11.505 29.0876H20.6803C20.8864 29.0876 21.0841 29.1695 21.2299 29.3153C21.3757 29.461 21.4576 29.6587 21.4576 29.8649C21.4576 30.071 21.3757 30.2688 21.2299 30.4145C21.0841 30.5603 20.8864 30.6422 20.6803 30.6422ZM38.7793 16.3593H34.905C34.6988 16.3593 34.5011 16.2774 34.3553 16.1316C34.2096 15.9859 34.1277 15.7881 34.1277 15.582C34.1277 15.3758 34.2096 15.1781 34.3553 15.0324C34.5011 14.8866 34.6988 14.8047 34.905 14.8047H38.7793C38.9855 14.8047 39.1832 14.8866 39.329 15.0324C39.4747 15.1781 39.5566 15.3758 39.5566 15.582C39.5566 15.7881 39.4747 15.9859 39.329 16.1316C39.1832 16.2774 38.9855 16.3593 38.7793 16.3593ZM38.7793 21.1203H29.6041C29.3979 21.1203 29.2002 21.0384 29.0544 20.8926C28.9087 20.7468 28.8268 20.5491 28.8268 20.343C28.8268 20.1368 28.9087 19.9391 29.0544 19.7933C29.2002 19.6475 29.3979 19.5657 29.6041 19.5657H38.7793C38.9855 19.5657 39.1832 19.6475 39.329 19.7933C39.4747 19.9391 39.5566 20.1368 39.5566 20.343C39.5566 20.5491 39.4747 20.7468 39.329 20.8926C39.1832 21.0384 38.9855 21.1203 38.7793 21.1203ZM38.7793 25.8812H29.6041C29.3979 25.8812 29.2002 25.7993 29.0544 25.6536C28.9087 25.5078 28.8268 25.3101 28.8268 25.1039C28.8268 24.8978 28.9087 24.7001 29.0544 24.5543C29.2002 24.4085 29.3979 24.3266 29.6041 24.3266H38.7793C38.9855 24.3266 39.1832 24.4085 39.329 24.5543C39.4747 24.7001 39.5566 24.8978 39.5566 25.1039C39.5566 25.3101 39.4747 25.5078 39.329 25.6536C39.1832 25.7993 38.9855 25.8812 38.7793 25.8812ZM38.7793 30.6422H29.6041C29.3979 30.6422 29.2002 30.5603 29.0544 30.4145C28.9087 30.2688 28.8268 30.071 28.8268 29.8649C28.8268 29.6587 28.9087 29.461 29.0544 29.3153C29.2002 29.1695 29.3979 29.0876 29.6041 29.0876H38.7793C38.9855 29.0876 39.1832 29.1695 39.329 29.3153C39.4747 29.461 39.5566 29.6587 39.5566 29.8649C39.5566 30.071 39.4747 30.2688 39.329 30.4145C39.1832 30.5603 38.9855 30.6422 38.7793 30.6422Z" fill="black"/>
<path d="M3.03419 12.8616H6.19518V12.1217C6.1937 11.1112 6.59249 10.1413 7.30431 9.42417C8.01613 8.70701 8.98303 8.30098 9.99346 8.29492H19.8475C20.2918 8.29814 20.7321 8.37913 21.1485 8.53423L24.3724 9.71175C24.8692 9.89295 25.414 9.89384 25.9114 9.71427L29.1353 8.53297C29.5517 8.37825 29.992 8.29769 30.4363 8.29492H40.2903C41.3007 8.30098 42.2676 8.70701 42.9795 9.42417C43.6913 10.1413 44.0901 11.1112 44.0886 12.1217V12.8616H47.2496C47.4628 12.8648 47.6667 12.9493 47.8196 13.0979C47.9725 13.2465 48.0629 13.4478 48.0723 13.6608V41.1156C48.0628 41.3284 47.9723 41.5295 47.8194 41.6778C47.6664 41.8261 47.4626 41.9103 47.2496 41.9132H3.03419C2.82118 41.9103 2.61734 41.8261 2.4644 41.6778C2.31146 41.5295 2.22099 41.3284 2.21151 41.1156V13.6608C2.2209 13.4478 2.31129 13.2465 2.46421 13.0979C2.61712 12.9493 2.82101 12.8648 3.03419 12.8616ZM20.6171 9.99527C20.371 9.90219 20.1106 9.85287 19.8475 9.84952H9.99346C9.3952 9.85512 8.82344 10.0972 8.40306 10.5229C7.98269 10.9486 7.74783 11.5234 7.74978 12.1217V33.1998C7.74978 34.4414 8.75172 35.4033 9.99346 35.4033H19.8475C20.2926 35.4114 20.7328 35.4971 21.1483 35.6567L24.3646 36.851V11.3264C24.1866 11.2878 24.0117 11.2367 23.841 11.1733L20.6171 9.99527ZM42.534 12.1217C42.5359 11.5234 42.3011 10.9486 41.8807 10.5229C41.4603 10.0972 40.8886 9.85512 40.2903 9.84952H30.4363C30.1732 9.85286 29.9128 9.90218 29.6668 9.99527L26.4428 11.1728C26.2721 11.2364 26.0972 11.2877 25.9192 11.3264V36.851L29.1353 35.6572C29.5508 35.4974 29.9911 35.4115 30.4363 35.4033H40.2903C41.5321 35.4033 42.534 34.4414 42.534 33.1998V12.1217ZM3.76611 40.3586H46.5177V14.4162H44.0886V33.1998C44.088 33.6966 43.9891 34.1883 43.7975 34.6466C43.6059 35.1049 43.3254 35.5207 42.9723 35.8701C42.6192 36.2195 42.2004 36.4955 41.7401 36.6822C41.2798 36.8689 40.787 36.9626 40.2903 36.9579H30.4363C30.1724 36.9661 29.912 37.0201 29.6668 37.1176L26.4427 38.3022C25.6037 38.6121 24.6821 38.6153 23.841 38.3113L20.6171 37.1162C20.3717 37.0191 20.1113 36.9655 19.8475 36.9579H9.99346C9.49674 36.9626 9.00401 36.8689 8.54369 36.6822C8.08336 36.4955 7.66456 36.2195 7.31145 35.8701C6.95834 35.5207 6.67789 35.1049 6.48631 34.6466C6.29472 34.1883 6.19577 33.6966 6.19518 33.1998V14.4162H3.76611V40.3586Z" fill="black"/>
</svg>
