 <svg width="51" height="40" viewBox="0 0 51 40" fill="none" xmlns="http://www.w3.org/2000/svg">
<rect width="51" height="40" fill="#F5F5F5"/>
<g id="Frame 1597881867" clip-path="url(#clip0_0_1)">
<rect width="1920" height="3137" transform="translate(-744 -1347)" fill="#FDFDFD"/>
<g id="Frame 1597881908">
<rect width="1520.84" height="1512.97" transform="translate(-544 -149)" fill="white"/>
<g id="Frame 176">
<g id="Frame 249" filter="url(#filter0_d_0_1)">
<rect x="-32.3135" y="-21.9072" width="113.708" height="113.708" rx="14.2135" fill="#FDFDFD" shape-rendering="crispEdges"/>
<g id="Frame 1597881883">
<g id="Group 3 Copy 5">
<mask id="mask0_0_1" style="mask-type:luminance" maskUnits="userSpaceOnUse" x="0" y="0" width="51" height="40">
<path id="Clip 2" fill-rule="evenodd" clip-rule="evenodd" d="M0.424805 0.560547H50.1721V39.6477H0.424805V0.560547Z" fill="white"/>
</mask>
<g mask="url(#mask0_0_1)">
<path id="Fill 1" fill-rule="evenodd" clip-rule="evenodd" d="M25.2662 9.7512C26.557 9.75316 27.6125 8.69412 27.6093 7.40007C27.6064 6.15113 26.5322 5.05581 25.301 5.04568C24.0507 5.03555 22.9483 6.15244 22.9586 7.41903C22.9692 8.69314 24.0141 9.74924 25.2662 9.7512ZM47.3108 35.0843H3.25952C3.5745 35.7315 3.87758 36.2812 4.11156 36.8598C4.29476 37.3132 4.56313 37.4377 5.03848 37.437C17.6303 37.4223 30.2222 37.4256 42.814 37.4256C43.7879 37.4256 44.7621 37.4374 45.7356 37.4155C45.9159 37.4112 46.181 37.3226 46.2572 37.1867C46.6214 36.5323 46.9347 35.8485 47.3108 35.0843ZM41.271 17.6179C41.0396 16.5412 40.8066 15.3246 40.5125 14.1234C40.1991 12.8428 39.0913 11.9684 37.7906 11.9671C29.4495 11.9599 21.1082 11.9606 12.7672 11.9681C11.4665 11.9694 10.3705 12.8395 10.052 14.129C9.78975 15.1903 9.61973 16.2755 9.34654 17.3335C9.19452 17.9212 9.42368 18.2582 9.85982 18.5426C10.3657 18.8721 10.8497 18.7132 11.3087 18.4413C11.8744 18.1062 12.4166 17.7303 12.9842 17.3996C14.9476 16.2559 16.5141 16.4873 18.0912 18.137C19.1432 19.2372 19.8686 19.2865 21.034 18.336C21.1584 18.2347 21.2789 18.1288 21.4026 18.0268C23.6081 16.2072 26.9902 16.1728 29.1577 18.0422C30.6651 19.3418 31.4731 19.2784 32.7478 17.8699C33.7759 16.7344 35.6008 16.2134 37.2165 17.1936C37.824 17.562 38.4237 17.9438 39.0366 18.3037C39.2947 18.4557 39.5653 18.6086 39.8501 18.6867C40.4633 18.8551 41.2884 18.2958 41.271 17.6179ZM8.72076 20.4285C7.85684 24.6097 7.01412 28.6857 6.16595 32.7888H44.4043C43.5475 28.6514 42.7054 24.5845 41.8556 20.4811C41.4815 20.6089 41.1733 20.7377 40.8535 20.8191C39.7591 21.0969 38.8017 20.6906 37.8764 20.1634C37.2146 19.7862 36.5711 19.374 35.8985 19.0184C35.4086 18.7595 34.9326 18.8896 34.5171 19.2374C34.3258 19.3972 34.141 19.5665 33.9681 19.7463C32.1866 21.6013 29.9917 21.6624 28.0582 19.9875C27.551 19.5486 26.9076 19.1808 26.2677 19.0112C24.8249 18.6281 23.5293 19.003 22.3974 20.0467C20.6592 21.6496 18.3133 21.5614 16.7349 19.8911C15.5541 18.6419 15.0437 18.5896 13.6208 19.5688C13.445 19.6901 13.2663 19.8065 13.0864 19.9215C11.7471 20.7792 10.366 21.3375 8.72076 20.4285ZM21.2439 9.7522C21.0947 8.87424 20.8562 8.07343 20.8424 7.26902C20.8103 5.35687 22.1059 3.67091 23.9192 3.0502C24.1545 2.96979 24.4058 2.76746 24.5299 2.55075C25.1984 1.38385 26.2956 0.942915 27.497 0.675542C27.857 0.59546 28.2327 0.567677 28.602 0.560813C29.276 0.548719 29.7147 0.950433 29.7452 1.56494C29.7783 2.24023 29.358 2.68444 28.6563 2.76877C28.128 2.83251 27.6054 2.9443 27.0728 3.11819C28.2437 3.80689 29.1082 4.69105 29.5267 5.97039C29.9442 7.24745 29.7748 8.48005 29.1359 9.75154H29.7992L37.3972 9.7522C40.3036 9.75253 42.1986 11.3394 42.7877 14.2207C44.0241 20.2674 45.2799 26.3101 46.5198 32.3561C46.5944 32.7205 46.7544 32.8673 47.1285 32.8526C47.7652 32.8274 48.4039 32.8343 49.0412 32.8529C49.9437 32.8794 50.4261 33.6322 50.0353 34.4601C49.3157 35.9836 48.5559 37.4878 47.8118 38.9996C47.5676 39.4964 47.1568 39.6425 46.6307 39.6419C40.5916 39.6334 34.5524 39.637 28.513 39.637C20.3661 39.637 12.2192 39.6304 4.07268 39.6474C3.35884 39.649 2.92174 39.3983 2.61609 38.7407C1.99707 37.4077 1.36166 36.0794 0.661966 34.7886C0.158973 33.8606 0.408702 32.7117 1.86979 32.8392C2.39721 32.8853 2.93234 32.8287 3.46266 32.8513C3.81073 32.866 3.97079 32.7267 4.04118 32.3848C5.24515 26.5327 6.45554 20.6818 7.66723 14.8316C7.78004 14.2877 7.87357 13.7344 8.04552 13.2091C8.72817 11.1237 10.6161 9.76168 12.8186 9.75383C15.4397 9.74468 18.061 9.75187 20.682 9.7522C20.8922 9.7522 21.1024 9.7522 21.2439 9.7522Z" fill="#1D242D"/>
</g>
</g>
</g>
</g>
</g>
</g>
</g>
<defs>
<filter id="filter0_d_0_1" x="-46.527" y="-32.5674" width="142.135" height="142.135" filterUnits="userSpaceOnUse" color-interpolation-filters="sRGB">
<feFlood flood-opacity="0" result="BackgroundImageFix"/>
<feColorMatrix in="SourceAlpha" type="matrix" values="0 0 0 0 0 0 0 0 0 0 0 0 0 0 0 0 0 0 127 0" result="hardAlpha"/>
<feOffset dy="3.55338"/>
<feGaussianBlur stdDeviation="7.10675"/>
<feComposite in2="hardAlpha" operator="out"/>
<feColorMatrix type="matrix" values="0 0 0 0 0 0 0 0 0 0 0 0 0 0 0 0 0 0 0.08 0"/>
<feBlend mode="normal" in2="BackgroundImageFix" result="effect1_dropShadow_0_1"/>
<feBlend mode="normal" in="SourceGraphic" in2="effect1_dropShadow_0_1" result="shape"/>
</filter>
<clipPath id="clip0_0_1">
<rect width="1920" height="3137" fill="white" transform="translate(-744 -1347)"/>
</clipPath>
</defs>
</svg>
