<svg width="45" height="45" viewBox="0 0 45 45" fill="none" xmlns="http://www.w3.org/2000/svg">
<rect width="45" height="45" fill="#F5F5F5"/>
<g id="Frame 1597881867" clip-path="url(#clip0_0_1)">
<rect width="1920" height="3137" transform="translate(-1514 -1342)" fill="#FDFDFD"/>
<g id="Frame 1597881908">
<rect width="1520.84" height="1512.97" transform="translate(-1314 -144)" fill="white"/>
<g id="Frame 176">
<g id="Frame 244" filter="url(#filter0_d_0_1)">
<rect x="-34.7852" y="-16.9072" width="113.708" height="113.708" rx="14.2135" fill="#FDFDFD" shape-rendering="crispEdges"/>
<g id="Frame 1597881883">
<g id="Group 10 Copy">
<g id="Group 3">
<mask id="mask0_0_1" style="mask-type:luminance" maskUnits="userSpaceOnUse" x="0" y="0" width="45" height="45">
<path id="Clip 2" fill-rule="evenodd" clip-rule="evenodd" d="M0.675781 0.296875H44.9793V44.9121H0.675781V0.296875Z" fill="white"/>
</mask>
<g mask="url(#mask0_0_1)">
<path id="Fill 1" fill-rule="evenodd" clip-rule="evenodd" d="M40.4582 21.8801C40.4582 26.8929 38.5835 31.4559 35.516 34.8763C34.6979 34.0336 33.8822 33.1893 33.0634 32.3473L31.6876 30.9316L32.2426 31.5026C34.4685 28.9471 35.8234 25.5762 35.8234 21.8801C35.8234 21.0437 35.7504 20.2251 35.6172 19.4275C36.884 18.1211 38.1489 16.8241 39.4073 15.5363C40.0855 17.5231 40.4582 19.6561 40.4582 21.8801ZM37.3562 40.8819C37.3504 41.6542 36.851 42.3135 36.0836 42.5622C35.2895 42.8193 34.4706 42.5226 33.9952 41.807C33.0856 40.4388 32.1787 39.0686 31.2722 37.6983C30.387 36.3602 29.5013 35.0228 28.6134 33.6862L28.4604 33.4558C27.5566 32.0958 26.6219 30.6896 25.676 29.3233C25.2164 28.6603 24.6386 28.1194 24.0793 27.5966C23.9005 27.4291 23.7213 27.2616 23.5467 27.0901C23.6529 26.9832 23.7495 26.8644 23.8433 26.7491C23.9495 26.6185 24.1222 26.4062 24.2157 26.3646C24.2975 26.4153 24.4466 26.6101 24.5378 26.7301C24.6309 26.8521 24.7274 26.978 24.8325 27.0862C28.832 31.1961 32.8276 35.3099 36.822 39.4254C37.2129 39.8277 37.3774 40.2736 37.3562 40.8819ZM29.656 39.2813C27.2474 40.4373 24.5611 41.0868 21.7258 41.0868C18.6745 41.0868 15.7963 40.3339 13.251 39.0073C14.3004 37.759 15.3513 36.5119 16.4019 35.2645C18.0449 35.9524 19.8413 36.3345 21.7258 36.3345C23.5948 36.3345 25.3772 35.9583 27.0095 35.2811C28.1894 37.0644 29.3671 38.8496 30.5497 40.6317C30.2512 40.1819 29.9545 39.7312 29.656 39.2813ZM24.4198 31.3673C25.2305 32.6001 26.0481 33.8282 26.8623 35.0586C26.5475 34.5834 26.2327 34.1081 25.9183 33.6325C24.6113 34.1232 23.1989 34.3909 21.7258 34.3909C20.3222 34.3909 18.9757 34.145 17.7209 33.6979C17.8958 33.49 18.0704 33.282 18.2454 33.0749C18.5339 32.7324 18.8209 32.3882 19.1078 32.0445C20.0383 30.9277 21.0008 29.7729 22.0131 28.7056C22.144 28.8355 22.2761 28.965 22.4078 29.0937C23.1544 29.8252 23.8601 30.5166 24.4198 31.3673ZM11.0083 38.2083C10.12 39.2641 9.23166 40.3203 8.34215 41.3753C8.27456 41.4553 8.20851 41.5373 8.14285 41.6197C7.93544 41.8779 7.73924 42.1218 7.49552 42.2937C7.16606 42.5261 6.80763 42.6513 6.4859 42.637C5.62845 42.6311 4.91623 42.1678 4.62694 41.428C4.31564 40.6308 4.48288 39.83 5.07536 39.2859C6.03748 38.4024 7.0359 37.5236 8.0011 36.6734L9.03892 35.7578C10.0095 34.8992 10.9813 34.0414 11.9527 33.184C13.9221 31.4459 15.8911 29.7082 17.8513 27.9597C19.7624 26.2545 21.565 24.3825 23.3084 22.5727C23.984 21.8713 24.6591 21.1699 25.342 20.4761C25.3559 20.4619 25.369 20.4496 25.3798 20.4389C25.3802 20.4393 25.3806 20.4397 25.381 20.4401C25.5973 20.7114 25.8541 20.9763 26.1446 21.2286C26.1442 21.2286 26.1438 21.229 26.1438 21.2293C25.3976 21.9873 24.6568 22.7509 23.916 23.5144C23.1261 24.3294 22.3359 25.1436 21.5391 25.9507C19.8837 27.6271 18.3561 29.4614 16.8788 31.2348C16.4079 31.8003 15.9371 32.3658 15.4616 32.927C13.9735 34.6838 12.4907 36.446 11.0083 38.2083ZM9.52747 22.0331C9.4228 21.9226 9.32006 21.8109 9.21539 21.7005C9.58849 22.0941 9.96121 22.4877 10.3281 22.8873C10.6476 23.2346 11.0431 23.5301 11.5714 23.8168C12.9202 24.5478 14.3944 24.6655 15.951 24.1653C16.7821 23.8992 17.3843 24.0821 17.9034 24.7585C17.9219 24.7827 17.9366 24.8025 17.9482 24.8191C17.9385 24.8282 17.9277 24.8393 17.9146 24.8516C16.0892 26.5561 14.1944 28.232 12.3342 29.8664C10.6093 27.7362 9.56262 25.0096 9.52747 22.0331ZM7.29393 15.9554C5.47128 13.192 4.32146 10.1625 3.8769 6.95152C3.81201 6.48422 3.76721 6.02047 3.73013 5.56307L10.8755 12.8174C10.2765 12.817 9.68512 12.817 9.09264 12.8182C8.35531 12.8201 7.87561 13.2601 7.86981 13.9393C7.86634 14.3512 8.02315 14.6011 8.15524 14.7385C8.36728 14.9579 8.67743 15.0699 9.07719 15.0711L9.43175 15.0719C10.6094 15.0751 11.7863 15.0783 12.9635 15.0668H12.9724C13.1165 15.0668 13.1952 15.1024 13.3042 15.2149C15.508 17.4896 17.8845 19.9378 20.3267 22.424C20.3283 22.4256 20.3298 22.4276 20.3313 22.4292C20.3279 22.4324 20.324 22.4359 20.3201 22.4395C20.0548 22.6965 19.8068 22.9725 19.5674 23.2395C19.5585 23.2493 19.5496 23.2589 19.5407 23.2692C19.4998 23.2228 19.46 23.1761 19.4202 23.1305C19.2306 22.9111 19.0344 22.6842 18.7841 22.4993C18.1325 22.0181 17.4265 21.7769 16.6741 21.7769C16.301 21.7769 15.9171 21.8363 15.5227 21.9548C14.3451 22.3088 13.4602 22.2779 12.6545 21.853C12.4274 21.733 12.213 21.6197 12.0643 21.4609C11.7399 21.114 11.4112 20.7707 11.0825 20.4269C9.75156 19.0345 8.3754 17.595 7.29393 15.9554ZM27.7053 22.8089C29.1194 24.073 31.2993 23.9138 32.7318 22.4177C33.1219 22.0109 33.5159 21.603 33.9087 21.1955C33.9207 21.4221 33.9276 21.6502 33.9276 21.8799C33.9276 25.0381 32.784 27.9204 30.9011 30.1222L25.7452 24.816C26.4103 24.1562 27.0677 23.4727 27.7053 22.8089ZM27.8218 22.6891C27.8075 22.7002 27.7886 22.7093 27.7685 22.7152L27.5265 22.431L27.8218 22.6891ZM44.6585 8.58677C44.2908 8.19749 43.6678 8.14165 43.239 8.45846C43.1166 8.54955 43.0158 8.65568 42.927 8.74994L31.0749 20.8939C30.3797 21.6063 29.6435 21.6075 28.9467 20.8987C27.8711 19.8045 26.8 18.7047 25.7313 17.6026C24.9855 16.8335 24.9925 16.1116 25.753 15.3314L37.4992 3.27931L37.566 3.21238C37.6487 3.13001 37.7421 3.03694 37.8228 2.92368C38.0982 2.53914 38.121 2.08728 37.8854 1.68374C37.6722 1.31861 37.3107 1.12575 36.8669 1.14476C36.4583 1.16099 36.2072 1.41841 36.0145 1.61602L31.6164 6.12551C30.6022 7.16546 29.5883 8.2062 28.5744 9.24615C26.5463 8.08739 24.2119 7.42525 21.7257 7.42525C18.1383 7.42525 14.8657 8.80142 12.3776 11.0639C12.8245 11.5241 13.271 11.9846 13.7182 12.4444C15.8611 10.5308 18.6601 9.36892 21.7257 9.36892C23.6835 9.36892 25.532 9.84454 27.172 10.6845C27.2635 10.5906 27.3547 10.4968 27.4466 10.4033C26.3273 11.551 25.2076 12.6983 24.0887 13.8471C22.6936 15.2795 22.5959 17.2814 23.8419 18.8358L23.8086 18.8698C23.171 19.5086 22.5117 20.1696 21.8871 20.8472C21.8856 20.8488 21.884 20.8503 21.8821 20.8519C21.8755 20.8456 21.8682 20.8381 21.8601 20.8298C18.3828 17.2414 14.9001 13.6586 11.4178 10.0754L8.31245 6.87993L9.10076 7.69137C12.4313 4.57469 16.8614 2.673 21.7257 2.673C25.498 2.673 29.007 3.82027 31.9466 5.7873L33.6183 4.07293C30.2345 1.69245 26.1396 0.296875 21.7257 0.296875C16.2233 0.296875 11.2158 2.4639 7.46543 6.00828L7.16803 5.70176C5.92821 4.4246 4.68801 3.14704 3.44471 1.87304C3.11177 1.53167 2.72786 1.38633 2.36981 1.46157C2.06701 1.52573 1.81557 1.74671 1.63983 2.07897L1.44825 2.16055V3.17634V5.38257V5.85661L1.53593 5.89423C1.58344 6.64667 1.69583 7.36703 1.7893 7.91671C2.04035 9.38832 2.42234 10.8096 2.92252 12.1803C1.48842 15.0974 0.675781 18.3903 0.675781 21.88C0.675781 27.1795 2.54169 32.03 5.63274 35.7867C5.67098 35.753 5.70844 35.7189 5.74668 35.6857C6.29436 35.2033 6.84127 34.7198 7.38625 34.2339C4.64629 30.8942 2.9932 26.5859 2.9932 21.88C2.9932 19.4829 3.42501 17.1903 4.20753 15.0744C4.20714 15.074 4.20714 15.0736 4.20676 15.0732C4.7444 16.0977 5.34963 17.0901 6.03906 18.039C6.56705 18.7653 7.14601 19.4492 7.74005 20.111C7.73927 20.1098 7.73812 20.1086 7.73734 20.1078C7.66821 20.6888 7.62804 21.2796 7.62804 21.88C7.62804 25.4002 8.85666 28.6254 10.896 31.1322C11.0775 30.9734 11.2571 30.8126 11.4379 30.6538C10.1826 31.7556 8.92695 32.8569 7.68288 33.9713C7.04057 34.5467 6.39363 35.1162 5.74668 35.6857C5.07386 36.2777 4.40103 36.8702 3.73362 37.4686C2.59885 38.4871 2.11374 39.8011 2.33158 41.2688C2.59885 43.0703 3.6274 44.2706 5.30521 44.7403C6.95869 45.2024 8.44338 44.7205 9.60016 43.3463L11.6928 40.8585C14.6753 42.5198 18.0931 43.4631 21.7257 43.4631C25.0442 43.4631 28.1816 42.6731 30.9733 41.2708L32.151 43.0465C32.9632 44.271 34.1069 44.9126 35.4707 44.9122C35.5526 44.9122 35.6356 44.9098 35.7186 44.9054C37.4358 44.81 38.7073 43.8611 39.2998 42.2339C39.8969 40.5951 39.5694 39.0625 38.3535 37.802C37.9534 37.3874 37.5509 36.9751 37.15 36.5613C40.6393 32.7092 42.7756 27.5514 42.7756 21.88C42.7756 18.9827 42.2151 16.2209 41.2051 13.6966C41.1696 13.7331 41.1337 13.7695 41.0981 13.8059C42.2117 12.6674 43.3248 11.5292 44.4368 10.3891L44.5024 10.3229C44.5851 10.2406 44.6793 10.1467 44.7608 10.0326C45.086 9.57683 45.0451 8.99586 44.6585 8.58677Z" fill="#1D242D"/>
</g>
</g>
<path id="Fill 4" fill-rule="evenodd" clip-rule="evenodd" d="M28.016 14.0447C27.8692 14.1863 27.7171 14.3324 27.5766 14.4945C27.3014 14.8107 27.2505 15.2057 27.4364 15.5781C27.5902 15.8859 27.8584 16.0773 28.2333 16.146L28.2696 16.1526L28.3058 16.1516C28.7418 16.1397 29.0037 15.8779 29.1945 15.6865C31.6403 13.239 34.0868 10.7922 36.5337 8.34577L39.2857 5.59287L39.3436 5.53639C39.4165 5.46597 39.4887 5.39449 39.5497 5.31535C39.8511 4.92487 39.8312 4.40085 39.502 4.04175C39.1567 3.66486 38.605 3.60804 38.1903 3.90682C38.0766 3.98876 37.9821 4.08498 37.8991 4.1697L28.2033 13.8624C28.1416 13.9237 28.0788 13.9841 28.016 14.0447Z" fill="#1D242D"/>
<path id="Fill 6" fill-rule="evenodd" clip-rule="evenodd" d="M29.5059 17.9072C29.4455 17.9669 29.3851 18.0277 29.332 18.0934C29.0715 18.414 29.0314 18.7972 29.2189 19.1727C29.3387 19.4113 29.5901 19.6973 30.1097 19.7054H30.1255C30.5407 19.7054 30.7991 19.4448 30.9705 19.2719C31.7049 18.5307 32.4407 17.7909 33.1783 17.0525C35.8187 14.4097 38.4605 11.768 41.1019 9.12631L41.132 9.09627C41.3143 8.91533 41.5639 8.66699 41.5374 8.30128C41.5419 7.7679 41.1788 7.33653 40.6734 7.27575C40.1964 7.21881 39.8982 7.51257 39.703 7.70748C37.3468 10.0659 34.9893 12.4233 32.6321 14.7807L29.5059 17.9072Z" fill="#1D242D"/>
<path id="Fill 8" fill-rule="evenodd" clip-rule="evenodd" d="M13.3554 17.9197C14.2419 17.8814 14.8579 17.2137 14.8883 16.2585C14.9215 15.2632 14.3127 14.4712 13.4737 14.4168C12.5922 14.3599 11.7467 14.3612 10.9592 14.4199C10.5594 14.4502 10.1983 14.6499 9.94277 14.9825C9.66406 15.3454 9.52691 15.8511 9.56617 16.3698C9.6353 17.2749 10.2392 17.8832 11.1052 17.9203C11.3601 17.9308 11.6167 17.9284 11.8717 17.9259L12.2002 17.9234L12.5491 17.9259C12.6663 17.9271 12.7836 17.9284 12.9008 17.9284C13.0523 17.9284 13.2044 17.9265 13.3554 17.9197Z" fill="#1D242D"/>
</g>
</g>
</g>
</g>
</g>
</g>
<defs>
<filter id="filter0_d_0_1" x="-48.9987" y="-27.5674" width="142.135" height="142.135" filterUnits="userSpaceOnUse" color-interpolation-filters="sRGB">
<feFlood flood-opacity="0" result="BackgroundImageFix"/>
<feColorMatrix in="SourceAlpha" type="matrix" values="0 0 0 0 0 0 0 0 0 0 0 0 0 0 0 0 0 0 127 0" result="hardAlpha"/>
<feOffset dy="3.55338"/>
<feGaussianBlur stdDeviation="7.10675"/>
<feComposite in2="hardAlpha" operator="out"/>
<feColorMatrix type="matrix" values="0 0 0 0 0 0 0 0 0 0 0 0 0 0 0 0 0 0 0.08 0"/>
<feBlend mode="normal" in2="BackgroundImageFix" result="effect1_dropShadow_0_1"/>
<feBlend mode="normal" in="SourceGraphic" in2="effect1_dropShadow_0_1" result="shape"/>
</filter>
<clipPath id="clip0_0_1">
<rect width="1920" height="3137" fill="white" transform="translate(-1514 -1342)"/>
</clipPath>
</defs>
</svg>
