 <svg width="46" height="46" viewBox="0 0 46 46" fill="none" xmlns="http://www.w3.org/2000/svg">
<rect width="46" height="46" fill="#F5F5F5"/>
<g id="Frame 1597881867" clip-path="url(#clip0_0_1)">
<rect width="1920" height="3137" transform="translate(-1258 -1344)" fill="#FDFDFD"/>
<g id="Frame 1597881908">
<rect width="1520.84" height="1512.97" transform="translate(-1058 -146)" fill="white"/>
<g id="Frame 176">
<g id="Frame 243" filter="url(#filter0_d_0_1)">
<rect x="-34.6279" y="-18.9072" width="113.708" height="113.708" rx="14.2135" fill="#FDFDFD" shape-rendering="crispEdges"/>
<g id="Frame 1597881883">
<g id="Group 10 Copy">
<g id="Group 3">
<mask id="mask0_0_1" style="mask-type:luminance" maskUnits="userSpaceOnUse" x="0" y="0" width="46" height="46">
<path id="Clip 2" fill-rule="evenodd" clip-rule="evenodd" d="M0.833008 0.796875H45.1365V45.4121H0.833008V0.796875Z" fill="white"/>
</mask>
<g mask="url(#mask0_0_1)">
<path id="Fill 1" fill-rule="evenodd" clip-rule="evenodd" d="M40.6153 22.38C40.6153 27.3928 38.7405 31.9557 35.673 35.3762C34.8549 34.5334 34.0392 33.6891 33.2204 32.8472L31.8446 31.4314L32.3996 32.0025C34.6255 29.447 35.9804 26.076 35.9804 22.38C35.9804 21.5436 35.9074 20.725 35.7742 19.9274C37.041 18.6209 38.306 17.324 39.5643 16.0361C40.2425 18.023 40.6153 20.1559 40.6153 22.38ZM37.5135 41.382C37.5077 42.1543 37.0083 42.8137 36.2408 43.0624C35.4467 43.3194 34.6279 43.0228 34.1524 42.3071C33.2428 40.9389 32.336 39.5687 31.4295 38.1984C30.5442 36.8603 29.6586 35.5229 28.7706 34.1864L28.6177 33.9559C27.7139 32.5959 26.7792 31.1897 25.8333 29.8234C25.3737 29.1605 24.7959 28.6195 24.2366 28.0967C24.0578 27.9292 23.8785 27.7617 23.704 27.5902C23.8102 27.4833 23.9067 27.3645 24.0006 27.2493C24.1068 27.1186 24.2795 26.9063 24.3729 26.8647C24.4548 26.9154 24.6039 27.1103 24.695 27.2302C24.7881 27.3522 24.8847 27.4782 24.9897 27.5863C28.9892 31.6962 32.9848 35.81 36.9793 39.9255C37.3702 40.3278 37.5347 40.7738 37.5135 41.382ZM29.813 39.7814C27.4044 40.9374 24.7181 41.5869 21.8828 41.5869C18.8315 41.5869 15.9533 40.834 13.408 39.5074C14.4574 38.2591 15.5083 37.012 16.5589 35.7646C18.2019 36.4525 19.9983 36.8346 21.8828 36.8346C23.7518 36.8346 25.5343 36.4584 27.1665 35.7812C28.3464 37.5645 29.5241 39.3498 30.7067 41.1318C30.4082 40.682 30.1115 40.2313 29.813 39.7814ZM24.5769 31.8674C25.3876 33.1002 26.2053 34.3283 27.0194 35.5587C26.7047 35.0835 26.3899 34.6083 26.0755 34.1326C24.7685 34.6233 23.356 34.891 21.8829 34.891C20.4793 34.891 19.1329 34.6451 17.878 34.198C18.053 33.9901 18.2275 33.7822 18.4025 33.575C18.691 33.2325 18.978 32.8883 19.265 32.5446C20.1954 31.4278 21.1579 30.273 22.1702 29.2057C22.3012 29.3356 22.4333 29.4651 22.565 29.5938C23.3116 30.3253 24.0172 31.0167 24.5769 31.8674ZM11.1656 38.7084C10.2773 39.7642 9.38892 40.8204 8.49941 41.8754C8.43182 41.9554 8.36577 42.0374 8.30011 42.1198C8.09271 42.378 7.8965 42.6219 7.65278 42.7938C7.32332 43.0263 6.9649 43.1514 6.64316 43.1371C5.78572 43.1312 5.07349 42.6679 4.7842 41.9281C4.4729 41.1309 4.64014 40.3301 5.23262 39.786C6.19474 38.9025 7.19316 38.0237 8.15837 37.1735L9.19618 36.2579C10.1668 35.3993 11.1386 34.5415 12.11 33.6841C14.0794 31.946 16.0484 30.2083 18.0086 28.4598C19.9197 26.7546 21.7222 24.8826 23.4657 23.0728C24.1412 22.3714 24.8164 21.6701 25.4992 20.9762C25.5131 20.962 25.5263 20.9497 25.5371 20.939C25.5375 20.9394 25.5378 20.9398 25.5382 20.9402C25.7545 21.2115 26.0114 21.4764 26.3018 21.7287C26.3014 21.7287 26.3011 21.7291 26.3011 21.7295C25.5548 22.4874 24.814 23.251 24.0732 24.0145C23.2834 24.8295 22.4931 25.6437 21.6963 26.4508C20.0409 28.1272 18.5134 29.9615 17.036 31.7349C16.5652 32.3004 16.0944 32.866 15.6189 33.4271C14.1307 35.1839 12.648 36.9462 11.1656 38.7084ZM9.68473 22.533C9.58006 22.4225 9.47732 22.3108 9.37265 22.2003C9.74576 22.594 10.1185 22.9876 10.4854 23.3872C10.8048 23.7345 11.2003 24.0299 11.7287 24.3167C13.0774 25.0477 14.5517 25.1653 16.1082 24.6652C16.9394 24.399 17.5416 24.582 18.0607 25.2584C18.0792 25.2826 18.0939 25.3024 18.1055 25.319C18.0958 25.3281 18.085 25.3392 18.0719 25.3515C16.2465 27.0559 14.3516 28.7319 12.4915 30.3663C10.7666 28.2361 9.71988 25.5095 9.68473 22.533ZM7.45107 16.4556C5.62842 13.6921 4.4786 10.6626 4.03404 7.45163C3.96915 6.98432 3.92435 6.52058 3.88727 6.06318L11.0326 13.3175C10.4336 13.3171 9.84226 13.3171 9.24978 13.3183C8.51245 13.3203 8.03274 13.7602 8.02695 14.4394C8.02347 14.8513 8.18029 15.1012 8.31238 15.2386C8.52442 15.458 8.83457 15.5701 9.23433 15.5712L9.58889 15.572C10.7665 15.5752 11.9434 15.5784 13.1206 15.5669H13.1295C13.2736 15.5669 13.3524 15.6025 13.4613 15.715C15.6652 17.9897 18.0417 20.4379 20.4839 22.9242C20.4854 22.9257 20.4869 22.9277 20.4885 22.9293C20.485 22.9325 20.4811 22.936 20.4773 22.9396C20.2119 23.1966 19.964 23.4726 19.7245 23.7396C19.7156 23.7495 19.7067 23.759 19.6979 23.7693C19.6569 23.7229 19.6171 23.6762 19.5774 23.6307C19.3877 23.4113 19.1915 23.1843 18.9412 22.9994C18.2896 22.5182 17.5836 22.2771 16.8312 22.2771C16.4581 22.2771 16.0742 22.3365 15.6798 22.4549C14.5022 22.8089 13.6173 22.778 12.8116 22.3531C12.5845 22.2331 12.3702 22.1198 12.2215 21.961C11.897 21.6141 11.5684 21.2708 11.2397 20.927C9.9087 19.5346 8.53253 18.0951 7.45107 16.4556ZM27.8626 23.3088C29.2766 24.5729 31.4565 24.4137 32.8891 22.9175C33.2792 22.5108 33.6731 22.1029 34.066 21.6954C34.0779 21.9219 34.0849 22.15 34.0849 22.3797C34.0849 25.538 32.9412 28.4202 31.0583 30.6221L25.9025 25.3158C26.5676 24.6561 27.2249 23.9725 27.8626 23.3088ZM27.9791 23.1892C27.9648 23.2003 27.9459 23.2094 27.9258 23.2153L27.6838 22.9312L27.9791 23.1892ZM44.8157 9.08677C44.448 8.69749 43.825 8.64165 43.3963 8.95846C43.2738 9.04955 43.173 9.15568 43.0842 9.24994L31.2321 21.3939C30.5369 22.1063 29.8007 22.1075 29.104 21.3987C28.0283 20.3045 26.9573 19.2047 25.8886 18.1026C25.1427 17.3335 25.1497 16.6116 25.9102 15.8314L37.6564 3.77931L37.7232 3.71238C37.8059 3.63001 37.8993 3.53694 37.9801 3.42368C38.2555 3.03914 38.2782 2.58728 38.0426 2.18374C37.8294 1.81861 37.4679 1.62575 37.0241 1.64476C36.6155 1.66099 36.3644 1.91841 36.1717 2.11602L31.7736 6.62551C30.7594 7.66546 29.7455 8.7062 28.7316 9.74615C26.7035 8.58739 24.3691 7.92525 21.8829 7.92525C18.2955 7.92525 15.023 9.30142 12.5348 11.5639C12.9817 12.0241 13.4282 12.4846 13.8754 12.9444C16.0183 11.0308 18.8173 9.86892 21.8829 9.86892C23.8407 9.86892 25.6893 10.3445 27.3292 11.1845C27.4208 11.0906 27.5119 10.9968 27.6038 10.9033C26.4845 12.051 25.3648 13.1983 24.2459 14.3471C22.8508 15.7795 22.7531 17.7814 23.9991 19.3358L23.9659 19.3698C23.3282 20.0086 22.6689 20.6696 22.0443 21.3472C22.0428 21.3488 22.0413 21.3503 22.0393 21.3519C22.0328 21.3456 22.0254 21.3381 22.0173 21.3298C18.54 17.7414 15.0573 14.1586 11.575 10.5754L8.46968 7.37993L9.25799 8.19137C12.5885 5.07469 17.0186 3.173 21.8829 3.173C25.6553 3.173 29.1642 4.32027 32.1039 6.2873L33.7755 4.57293C30.3917 2.19245 26.2968 0.796875 21.8829 0.796875C16.3806 0.796875 11.373 2.9639 7.62266 6.50828L7.32526 6.20176C6.08544 4.9246 4.84523 3.64704 3.60194 2.37304C3.269 2.03167 2.88508 1.88633 2.52704 1.96157C2.22423 2.02573 1.97279 2.24671 1.79705 2.57897L1.60548 2.66055V3.67634V5.88257V6.35661L1.69316 6.39423C1.74066 7.14667 1.85306 7.86703 1.94653 8.41671C2.19758 9.88832 2.57957 11.3096 3.07975 12.6803C1.64565 15.5974 0.833008 18.8903 0.833008 22.38C0.833008 27.6795 2.69892 32.53 5.78997 36.2867C5.8282 36.253 5.86567 36.2189 5.90391 36.1857C6.45159 35.7033 6.9985 35.2198 7.54348 34.7339C4.80352 31.3942 3.15043 27.0859 3.15043 22.38C3.15043 19.9829 3.58224 17.6903 4.36475 15.5744C4.36437 15.574 4.36437 15.5736 4.36398 15.5732C4.90162 16.5977 5.50686 17.5901 6.19629 18.539C6.72427 19.2653 7.30324 19.9492 7.89727 20.611C7.8965 20.6098 7.89534 20.6086 7.89457 20.6078C7.82543 21.1888 7.78526 21.7796 7.78526 22.38C7.78526 25.9002 9.01388 29.1254 11.0532 31.6322C11.2347 31.4734 11.4143 31.3126 11.5951 31.1538C10.3398 32.2556 9.08418 33.3569 7.84011 34.4713C7.1978 35.0467 6.55085 35.6162 5.90391 36.1857C5.23108 36.7777 4.55826 37.3702 3.89084 37.9686C2.75608 38.9871 2.27097 40.3011 2.4888 41.7688C2.75608 43.5703 3.78463 44.7706 5.46244 45.2403C7.11592 45.7024 8.60061 45.2205 9.75739 43.8463L11.85 41.3585C14.8325 43.0198 18.2503 43.9631 21.8829 43.9631C25.2014 43.9631 28.3388 43.1731 31.1306 41.7708L32.3082 43.5465C33.1204 44.771 34.2641 45.4126 35.6279 45.4122C35.7098 45.4122 35.7928 45.4098 35.8759 45.4054C37.5931 45.31 38.8646 44.3611 39.457 42.7339C40.0542 41.0951 39.7266 39.5625 38.5108 38.302C38.1106 37.8874 37.7082 37.4751 37.3073 37.0613C40.7965 33.2092 42.9328 28.0514 42.9328 22.38C42.9328 19.4827 42.3724 16.7209 41.3623 14.1966C41.3268 14.2331 41.2909 14.2695 41.2554 14.3059C42.3689 13.1674 43.482 12.0292 44.594 10.8891L44.6596 10.8229C44.7423 10.7406 44.8365 10.6467 44.918 10.5326C45.2433 10.0768 45.2023 9.49586 44.8157 9.08677Z" fill="#1D242D"/>
</g>
</g>
<path id="Fill 4" fill-rule="evenodd" clip-rule="evenodd" d="M28.1732 14.5438C28.0264 14.6853 27.8744 14.8314 27.7338 14.9935C27.4586 15.3097 27.4077 15.7047 27.5936 16.0771C27.7474 16.3849 28.0156 16.5764 28.3905 16.645L28.4268 16.6517L28.4631 16.6506C28.899 16.6388 29.1609 16.3769 29.3517 16.1855C31.7975 13.738 34.244 11.2912 36.6909 8.8448L39.443 6.0919L39.5009 6.03542C39.5737 5.96499 39.6459 5.89352 39.707 5.81437C40.0083 5.42389 39.9884 4.89988 39.6592 4.54077C39.3139 4.16389 38.7622 4.10706 38.3475 4.40585C38.2338 4.48778 38.1393 4.58401 38.0563 4.66873L28.3605 14.3614C28.2988 14.4228 28.236 14.4831 28.1732 14.5438Z" fill="#1D242D"/>
<path id="Fill 6" fill-rule="evenodd" clip-rule="evenodd" d="M29.6632 18.4072C29.6028 18.4669 29.5423 18.5277 29.4893 18.5934C29.2288 18.914 29.1886 19.2972 29.3761 19.6727C29.4959 19.9113 29.7473 20.1973 30.267 20.2054H30.2827C30.6979 20.2054 30.9563 19.9448 31.1278 19.7719C31.8622 19.0307 32.598 18.2909 33.3355 17.5525C35.9759 14.9097 38.6177 12.268 41.2592 9.62631L41.2892 9.59627C41.4715 9.41533 41.7212 9.16699 41.6946 8.80128C41.6992 8.2679 41.336 7.83653 40.8307 7.77575C40.3536 7.71881 40.0554 8.01257 39.8602 8.20748C37.5041 10.5659 35.1465 12.9233 32.7893 15.2807L29.6632 18.4072Z" fill="#1D242D"/>
<path id="Fill 8" fill-rule="evenodd" clip-rule="evenodd" d="M13.5126 18.4207C14.3991 18.3824 15.0152 17.7147 15.0456 16.7595C15.0787 15.7642 14.4699 14.9722 13.631 14.9178C12.7495 14.8609 11.9039 14.8622 11.1164 14.9209C10.7166 14.9512 10.3555 15.1509 10.1 15.4835C9.82128 15.8464 9.68414 16.3521 9.7234 16.8708C9.79253 17.7759 10.3964 18.3842 11.2624 18.4213C11.5174 18.4318 11.774 18.4294 12.0289 18.4269L12.3574 18.4244L12.7063 18.4269C12.8236 18.4281 12.9408 18.4294 13.058 18.4294C13.2096 18.4294 13.3617 18.4275 13.5126 18.4207Z" fill="#1D242D"/>
</g>
</g>
</g>
</g>
</g>
</g>
<defs>
<filter id="filter0_d_0_1" x="-48.8414" y="-29.5674" width="142.135" height="142.135" filterUnits="userSpaceOnUse" color-interpolation-filters="sRGB">
<feFlood flood-opacity="0" result="BackgroundImageFix"/>
<feColorMatrix in="SourceAlpha" type="matrix" values="0 0 0 0 0 0 0 0 0 0 0 0 0 0 0 0 0 0 127 0" result="hardAlpha"/>
<feOffset dy="3.55338"/>
<feGaussianBlur stdDeviation="7.10675"/>
<feComposite in2="hardAlpha" operator="out"/>
<feColorMatrix type="matrix" values="0 0 0 0 0 0 0 0 0 0 0 0 0 0 0 0 0 0 0.08 0"/>
<feBlend mode="normal" in2="BackgroundImageFix" result="effect1_dropShadow_0_1"/>
<feBlend mode="normal" in="SourceGraphic" in2="effect1_dropShadow_0_1" result="shape"/>
</filter>
<clipPath id="clip0_0_1">
<rect width="1920" height="3137" fill="white" transform="translate(-1258 -1344)"/>
</clipPath>
</defs>
</svg>
