<svg width="50" height="40" viewBox="0 0 50 40" fill="none" xmlns="http://www.w3.org/2000/svg">
<rect width="50" height="40" fill="#F5F5F5"/>
<g id="Frame 1597881867" clip-path="url(#clip0_0_1)">
<rect width="1920" height="3137" transform="translate(-1128 -1347)" fill="#FDFDFD"/>
<g id="Frame 1597881908">
<rect width="1520.84" height="1512.97" transform="translate(-928 -149)" fill="white"/>
<g id="Frame 176">
<g id="Frame 241" filter="url(#filter0_d_0_1)">
<rect x="-32.5488" y="-21.9072" width="113.708" height="113.708" rx="14.2135" fill="#FDFDFD" shape-rendering="crispEdges"/>
<g id="Frame 1597881883">
<g id="Group 3 Copy 5">
<mask id="mask0_0_1" style="mask-type:luminance" maskUnits="userSpaceOnUse" x="0" y="0" width="50" height="40">
<path id="Clip 2" fill-rule="evenodd" clip-rule="evenodd" d="M0.189453 0.560547H49.9367V39.6477H0.189453V0.560547Z" fill="white"/>
</mask>
<g mask="url(#mask0_0_1)">
<path id="Fill 1" fill-rule="evenodd" clip-rule="evenodd" d="M25.0309 9.7512C26.3216 9.75316 27.3771 8.69412 27.3739 7.40007C27.371 6.15113 26.2969 5.05581 25.0656 5.04568C23.8154 5.03555 22.713 6.15244 22.7232 7.41903C22.7338 8.69314 23.7787 9.74924 25.0309 9.7512ZM47.0755 35.0843H3.02424C3.33921 35.7315 3.6423 36.2812 3.87628 36.8598C4.05947 37.3132 4.32784 37.4377 4.8032 37.437C17.3951 37.4223 29.9869 37.4256 42.5788 37.4256C43.5526 37.4256 44.5268 37.4374 45.5003 37.4155C45.6806 37.4112 45.9458 37.3226 46.0219 37.1867C46.3861 36.5323 46.6995 35.8485 47.0755 35.0843ZM41.0356 17.6179C40.8042 16.5412 40.5712 15.3246 40.2771 14.1234C39.9637 12.8428 38.8559 11.9684 37.5551 11.9671C29.2141 11.9599 20.8728 11.9606 12.5318 11.9681C11.2311 11.9694 10.1351 12.8395 9.81661 14.129C9.55435 15.1903 9.38433 16.2755 9.11114 17.3335C8.95912 17.9212 9.18827 18.2582 9.62442 18.5426C10.1303 18.8721 10.6143 18.7132 11.0733 18.4413C11.639 18.1062 12.1812 17.7303 12.7488 17.3996C14.7122 16.2559 16.2787 16.4873 17.8558 18.137C18.9078 19.2372 19.6332 19.2865 20.7986 18.336C20.923 18.2347 21.0435 18.1288 21.1672 18.0268C23.3727 16.2072 26.7548 16.1728 28.9223 18.0422C30.4297 19.3418 31.2377 19.2784 32.5124 17.8699C33.5405 16.7344 35.3654 16.2134 36.9811 17.1936C37.5886 17.562 38.1883 17.9438 38.8012 18.3037C39.0593 18.4557 39.3299 18.6086 39.6147 18.6867C40.2279 18.8551 41.053 18.2958 41.0356 17.6179ZM8.48542 20.4285C7.6215 24.6097 6.77878 28.6857 5.9306 32.7888H44.169C43.3121 28.6514 42.4701 24.5845 41.6203 20.4811C41.2462 20.6089 40.938 20.7377 40.6182 20.8191C39.5238 21.0969 38.5663 20.6906 37.641 20.1634C36.9792 19.7862 36.3358 19.374 35.6631 19.0184C35.1733 18.7595 34.6973 18.8896 34.2817 19.2374C34.0905 19.3972 33.9057 19.5665 33.7328 19.7463C31.9512 21.6013 29.7564 21.6624 27.8228 19.9875C27.3157 19.5486 26.6722 19.1808 26.0323 19.0112C24.5896 18.6281 23.294 19.003 22.162 20.0467C20.4239 21.6496 18.078 21.5614 16.4996 19.8911C15.3187 18.6419 14.8083 18.5896 13.3855 19.5688C13.2097 19.6901 13.031 19.8065 12.851 19.9215C11.5117 20.7792 10.1307 21.3375 8.48542 20.4285ZM21.0085 9.7522C20.8594 8.87424 20.6209 8.07343 20.6071 7.26902C20.5749 5.35687 21.8705 3.67091 23.6839 3.0502C23.9191 2.96979 24.1705 2.76746 24.2945 2.55075C24.963 1.38385 26.0603 0.942915 27.2617 0.675542C27.6217 0.59546 27.9974 0.567677 28.3667 0.560813C29.0406 0.548719 29.4794 0.950433 29.5099 1.56494C29.543 2.24023 29.1226 2.68444 28.421 2.76877C27.8926 2.83251 27.37 2.9443 26.8374 3.11819C28.0083 3.80689 28.8729 4.69105 29.2913 5.97039C29.7088 7.24745 29.5395 8.48005 28.9005 9.75154H29.5639L37.1618 9.7522C40.0682 9.75253 41.9632 11.3394 42.5524 14.2207C43.7888 20.2674 45.0445 26.3101 46.2845 32.3561C46.359 32.7205 46.5191 32.8673 46.8932 32.8526C47.5299 32.8274 48.1685 32.8343 48.8059 32.8529C49.7084 32.8794 50.1908 33.6322 49.7999 34.4601C49.0803 35.9836 48.3205 37.4878 47.5765 38.9996C47.3322 39.4964 46.9215 39.6425 46.3953 39.6419C40.3562 39.6334 34.3171 39.637 28.2776 39.637C20.1308 39.637 11.9839 39.6304 3.83732 39.6474C3.12349 39.649 2.68639 39.3983 2.38073 38.7407C1.76171 37.4077 1.1263 36.0794 0.426614 34.7886C-0.0763787 33.8606 0.17335 32.7117 1.63444 32.8392C2.16186 32.8853 2.69699 32.8287 3.2273 32.8513C3.57538 32.866 3.73544 32.7267 3.80583 32.3848C5.0098 26.5327 6.22019 20.6818 7.43188 14.8316C7.54469 14.2877 7.63822 13.7344 7.81017 13.2091C8.49282 11.1237 10.3807 9.76168 12.5833 9.75383C15.2043 9.74468 17.8257 9.75187 20.4467 9.7522C20.6569 9.7522 20.8671 9.7522 21.0085 9.7522Z" fill="#1D242D"/>
</g>
</g>
</g>
</g>
</g>
</g>
</g>
<defs>
<filter id="filter0_d_0_1" x="-46.7623" y="-32.5674" width="142.135" height="142.135" filterUnits="userSpaceOnUse" color-interpolation-filters="sRGB">
<feFlood flood-opacity="0" result="BackgroundImageFix"/>
<feColorMatrix in="SourceAlpha" type="matrix" values="0 0 0 0 0 0 0 0 0 0 0 0 0 0 0 0 0 0 127 0" result="hardAlpha"/>
<feOffset dy="3.55338"/>
<feGaussianBlur stdDeviation="7.10675"/>
<feComposite in2="hardAlpha" operator="out"/>
<feColorMatrix type="matrix" values="0 0 0 0 0 0 0 0 0 0 0 0 0 0 0 0 0 0 0.08 0"/>
<feBlend mode="normal" in2="BackgroundImageFix" result="effect1_dropShadow_0_1"/>
<feBlend mode="normal" in="SourceGraphic" in2="effect1_dropShadow_0_1" result="shape"/>
</filter>
<clipPath id="clip0_0_1">
<rect width="1920" height="3137" fill="white" transform="translate(-1128 -1347)"/>
</clipPath>
</defs>
</svg>
