<svg width="52" height="42" viewBox="0 0 52 42" fill="none" xmlns="http://www.w3.org/2000/svg">
<rect width="52" height="42" fill="#F5F5F5"/>
<g id="Frame 1597881867" clip-path="url(#clip0_0_1)">
<rect width="1920" height="3137" transform="translate(-1660 -1363)" fill="#FDFDFD"/>
<g id="Frame 1597881908">
<rect width="1520.84" height="1512.97" transform="translate(-1460 -165)" fill="white"/>
<g id="Frame 176">
<g id="Frame 245" filter="url(#filter0_d_0_1)">
<rect x="-52.8633" y="-37.9072" width="113.708" height="113.708" rx="14.2135" fill="#FDFDFD" shape-rendering="crispEdges"/>
<g id="Frame 1597881882">
<g id="Group 8 Copy">
<g id="Group 3">
<mask id="mask0_0_1" style="mask-type:luminance" maskUnits="userSpaceOnUse" x="0" y="0" width="52" height="42">
<path id="Clip 2" fill-rule="evenodd" clip-rule="evenodd" d="M0.446289 0.416016H51.7098V41.194H0.446289V0.416016Z" fill="white"/>
</mask>
<g mask="url(#mask0_0_1)">
<path id="Fill 1" fill-rule="evenodd" clip-rule="evenodd" d="M49.1126 37.8376C49.1281 38.1188 49.0752 38.3253 48.9553 38.4514C48.8336 38.5788 48.6249 38.6443 48.3348 38.6456C47.0849 38.6504 45.8372 38.6465 44.59 38.6416L26.2848 38.5863L4.14281 38.5186H4.04465C3.96425 38.5191 3.88386 38.5195 3.80346 38.5164C3.22248 38.4944 3.04215 38.3701 3.04481 37.6324C3.04659 37.066 3.24469 36.8748 3.83011 36.8731C4.96364 36.87 6.09716 36.8744 7.23114 36.8788L48.1714 37.0018C48.9153 37.004 49.0735 37.1446 49.1126 37.8376ZM18.955 10.7601C19.0398 10.7039 19.126 10.6485 19.2117 10.5936C19.3348 10.5145 19.4578 10.4354 19.5782 10.3519C20.2355 9.89363 20.407 9.17741 20.0041 8.56929C19.5995 7.95809 18.8484 7.82055 18.1795 8.2371C16.1216 9.51706 14.3378 11.1525 12.8778 13.0986C12.7828 13.2256 12.6886 13.3543 12.5949 13.4826L12.423 13.7102L11.0341 12.9009C13.4361 9.03768 17.5292 6.01244 22.2992 4.58309C27.5555 3.00785 33.1116 3.53469 37.9442 6.06649C43.0327 8.7323 46.7211 13.0977 48.3299 18.3581C49.9022 23.4991 49.3745 29.1075 46.8859 33.784L14.6421 15.0038C15.812 13.3082 17.2254 11.9179 18.955 10.7601ZM24.6898 24.436C25.3458 24.353 25.8886 24.4721 26.5046 24.835C28.7726 26.1738 31.0485 27.4999 33.3249 28.826C34.8346 29.7057 36.3444 30.5854 37.8515 31.4681C37.9976 31.5538 38.1375 31.7098 38.1997 31.8561C38.4817 32.5192 38.7456 33.1879 39.025 33.8958L39.2244 34.3998L12.9903 34.322C13.0009 34.282 13.0111 34.242 13.0214 34.2029C13.088 33.9459 13.1502 33.7029 13.2355 33.4731C15.1903 28.1937 19.0443 25.1536 24.6898 24.436ZM43.0121 34.4658C42.6408 34.4667 42.2708 34.4658 41.9061 34.4505C41.8746 34.4434 41.8093 34.3933 41.7964 34.3714C41.7249 34.146 41.6703 33.9148 41.6107 33.6543L43.0121 34.4658ZM38.9631 3.67769C39.2474 3.21369 39.7266 2.97685 40.42 2.95532C41.2235 2.93071 41.824 3.27037 42.166 3.93957C42.4703 4.53319 42.4823 5.11363 42.2042 5.66815L38.9631 3.67769ZM50.9531 35.9011C50.6213 35.514 50.2127 35.2069 49.8165 34.9098C49.6921 34.8163 49.5682 34.7235 49.4496 34.6295C53.643 24.5159 51.8756 15.3022 44.1955 7.23933C45.3841 4.45531 44.8972 2.32161 42.7825 1.06318C41.8529 0.509977 40.8913 0.309613 39.9247 0.469113C38.5607 0.692766 37.4511 1.44545 36.6232 2.70608L36.1613 2.54702C32.2796 1.19763 28.3812 0.843918 24.5768 1.49378C17.6446 2.6784 12.1889 6.30297 8.3601 12.2673C7.987 12.8482 7.86529 13.2489 7.9528 13.6075C8.04163 13.9726 8.33034 14.2679 8.94819 14.6273C13.3473 17.1864 17.7446 19.7472 22.1419 22.3084C22.1587 22.3181 22.1752 22.3282 22.1925 22.3383L22.1587 22.348C16.0634 24.1113 12.1151 28.0583 10.4233 34.0794C10.3469 34.3531 10.2878 34.3751 10.0408 34.3742C9.02458 34.365 8.00787 34.3624 6.99116 34.3602C5.99089 34.358 4.99061 34.3558 3.99034 34.3465C2.87236 34.3413 1.94182 34.7851 1.24535 35.6801C1.00639 35.9872 0.843379 36.3436 0.685698 36.6885C0.616851 36.8384 0.548004 36.9882 0.473384 37.1332L0.449398 37.1798L0.446289 38.2857L0.490706 38.3442C0.503143 38.36 0.516468 38.3758 0.541786 38.3965C1.14364 40.1646 2.39754 41.0636 4.26795 41.0689L40.3338 41.1787C42.397 41.1862 44.4588 41.1941 46.522 41.1941C47.0692 41.1941 47.6165 41.1937 48.1632 41.1923C49.5722 41.1888 50.6462 40.5047 51.3555 39.1575C51.9405 38.0458 51.7979 36.8893 50.9531 35.9011Z" fill="#1D242D"/>
</g>
</g>
<path id="Fill 4" fill-rule="evenodd" clip-rule="evenodd" d="M45.7024 25.6297C45.6579 26.3685 46.1831 26.9354 46.951 26.9782C46.9822 26.9795 47.0134 26.9804 47.0446 26.9804C47.3886 26.9804 47.7061 26.8743 47.9478 26.6773C48.2194 26.4542 48.3817 26.126 48.4025 25.7535C48.421 25.4383 48.4176 25.1208 48.4143 24.8133C48.4129 24.6722 48.412 24.5314 48.4124 24.3907V24.3889C48.393 20.1596 46.9609 16.3846 44.0337 12.8486C39.2324 7.05074 30.5373 4.34798 22.8859 6.27772C22.4956 6.37602 22.1421 6.70299 21.9415 6.97582C21.6619 7.35605 21.7196 7.82463 22.0995 8.26159C22.4643 8.6795 22.9791 8.81462 23.6287 8.66348C26.2276 8.05762 28.5719 7.95585 30.797 8.35254C37.6838 9.57984 42.3919 13.2128 44.7897 19.1497C45.5538 21.0414 45.8519 23.1612 45.7024 25.6297Z" fill="#1D242D"/>
<path id="Fill 6" fill-rule="evenodd" clip-rule="evenodd" d="M46.1348 27.5073C45.7965 27.1654 45.3105 26.9854 44.843 26.9805C43.853 26.9861 43.0982 27.7363 43.087 28.7261C43.0815 29.2201 43.2658 29.6799 43.6066 30.0206C43.9374 30.352 44.38 30.5338 44.8542 30.5338H44.8735C45.8325 30.5239 46.6251 29.7364 46.64 28.7783C46.6481 28.2961 46.4687 27.8443 46.1348 27.5073Z" fill="#1D242D"/>
</g>
</g>
</g>
</g>
</g>
</g>
<defs>
<filter id="filter0_d_0_1" x="-67.0768" y="-48.5674" width="142.135" height="142.135" filterUnits="userSpaceOnUse" color-interpolation-filters="sRGB">
<feFlood flood-opacity="0" result="BackgroundImageFix"/>
<feColorMatrix in="SourceAlpha" type="matrix" values="0 0 0 0 0 0 0 0 0 0 0 0 0 0 0 0 0 0 127 0" result="hardAlpha"/>
<feOffset dy="3.55338"/>
<feGaussianBlur stdDeviation="7.10675"/>
<feComposite in2="hardAlpha" operator="out"/>
<feColorMatrix type="matrix" values="0 0 0 0 0 0 0 0 0 0 0 0 0 0 0 0 0 0 0.08 0"/>
<feBlend mode="normal" in2="BackgroundImageFix" result="effect1_dropShadow_0_1"/>
<feBlend mode="normal" in="SourceGraphic" in2="effect1_dropShadow_0_1" result="shape"/>
</filter>
<clipPath id="clip0_0_1">
<rect width="1920" height="3137" fill="white" transform="translate(-1660 -1363)"/>
</clipPath>
</defs>
</svg>
