<svg width="45" height="53" viewBox="0 0 45 53" fill="none" xmlns="http://www.w3.org/2000/svg">
<rect width="45" height="53" fill="#F5F5F5"/>
<g clip-path="url(#clip0_0_1)">
<rect width="1920" height="3137" transform="translate(-235 -1341)" fill="#FDFDFD"/>
<rect width="1520.84" height="1512.97" transform="translate(-35 -143)" fill="white"/>
<g filter="url(#filter0_d_0_1)">
<rect x="-35" y="-15.9072" width="113.708" height="113.708" rx="14.2135" fill="#FDFDFD" shape-rendering="crispEdges"/>
<mask id="mask0_0_1" style="mask-type:luminance" maskUnits="userSpaceOnUse" x="0" y="23" width="45" height="30">
<path fill-rule="evenodd" clip-rule="evenodd" d="M0.53418 23.2461H44.6286V52.3772H0.53418V23.2461Z" fill="white"/>
</mask>
<g mask="url(#mask0_0_1)">
<path fill-rule="evenodd" clip-rule="evenodd" d="M35.2886 39.7371V33.0013C36.7996 33.5614 37.6707 34.8296 37.6575 36.3959C37.6443 37.9351 36.7848 39.1791 35.2886 39.7371ZM42.1399 36.5794C42.0157 40.3639 39.3223 43.594 35.6365 44.3622C35.2898 44.4346 34.9287 44.4378 34.4134 44.4888C34.5812 43.9135 34.742 43.4813 34.8267 43.0352C34.8987 42.6572 35.0768 42.5269 35.4482 42.4146C38.316 41.5474 40.1338 39.2926 40.2045 36.5826C40.2777 33.7559 38.6429 31.4555 35.7653 30.4057C34.7441 30.0335 35.266 29.2115 35.2985 28.6538C35.3334 28.0559 35.9219 28.4647 36.2246 28.551C39.806 29.5742 42.2596 32.9215 42.1399 36.5794ZM32.6922 28.1555C32.7231 29.0758 32.6976 29.9978 32.6972 30.9193C32.6968 31.808 32.6972 32.6966 32.6972 33.5853C32.5812 36.278 32.9427 38.9871 32.5129 41.6663C31.8072 46.0639 28.0321 49.5605 23.5871 49.7661C19.7101 49.9454 15.8178 49.9648 11.9408 49.7497C7.26669 49.4898 3.29588 45.3167 3.147 40.4207C3.00511 35.7516 3.10957 31.0752 3.0812 26.4025C3.07791 25.8457 3.30822 25.7568 3.78488 25.7577C10.6638 25.7683 17.5427 25.7733 24.4216 25.7531C25.055 25.7515 25.2236 25.9826 25.1726 26.5583C25.1347 26.9827 25.1607 27.4132 25.1685 27.8409C25.1825 28.6128 25.3803 29.4015 24.063 29.3053C23.4325 29.2596 23.0323 29.9279 23.0327 30.6529C23.0344 33.5816 23.0225 36.5107 23.0377 39.4395C23.0426 40.3499 23.539 40.8451 24.4356 40.8599C25.7521 40.8812 27.069 40.8812 28.385 40.8599C29.3001 40.8451 29.7615 40.3787 29.7661 39.4432C29.7805 36.5145 29.7722 33.5853 29.7706 30.6566C29.7706 29.7305 29.2791 29.2296 28.3764 29.244C27.7887 29.2539 27.6406 29.0351 27.6891 28.5038C27.7698 27.6275 27.3342 26.5065 27.8635 25.9345C28.3579 25.4007 29.4802 25.8012 30.3254 25.7733C31.0784 25.7486 32.0885 25.5064 32.5228 25.8876C33.0381 26.3395 32.6659 27.3746 32.6922 28.1555ZM25.5839 34.9473C25.5835 34.1911 25.6114 33.4336 25.5744 32.6794C25.5456 32.0877 25.567 31.7324 26.3645 31.7419C27.1257 31.7509 27.2935 31.9767 27.2705 32.691C27.2187 34.333 27.2055 35.9799 27.2754 37.6203C27.3104 38.4362 26.8526 38.3062 26.3579 38.3395C25.7965 38.3774 25.5193 38.2717 25.5683 37.6084C25.6341 36.7259 25.5847 35.8348 25.5839 34.9473ZM35.9471 25.8824C35.3281 25.7706 35.2294 25.5387 35.2294 24.9971C35.2286 23.6141 34.8432 23.249 33.4721 23.2481C28.2707 23.2448 23.0698 23.2469 17.8689 23.2469C15.3009 23.2469 12.7334 23.2465 10.1662 23.2469C7.56533 23.2469 4.96487 23.2444 2.3644 23.2481C0.953336 23.2498 0.57291 23.6363 0.568387 25.0711C0.561806 26.9471 0.54042 28.8235 0.565508 30.6995C0.613215 34.22 0.406346 37.7454 0.675728 41.2606C1.12566 47.1316 6.39115 52.1749 12.2604 52.313C15.8792 52.3982 19.5025 52.3928 23.122 52.3315C26.9283 52.2674 30.0314 50.6521 32.4406 47.7283C32.8552 47.2254 33.2483 47.028 33.915 47.0313C39.3919 47.0584 44.0935 42.8911 44.5776 37.6356C45.1081 31.8773 41.4622 26.8809 35.9471 25.8824Z" fill="#1D242D"/>
</g>
<path fill-rule="evenodd" clip-rule="evenodd" d="M11.1993 19.7353C11.2027 20.8245 11.8712 21.4248 13.008 21.4027C14.0738 21.3818 14.7439 20.7726 14.7451 19.7693C14.7503 13.7791 14.7474 7.78884 14.7399 1.79861C14.7382 0.695376 14.1059 0.0942274 12.9828 0.0831738C11.8391 0.071695 11.2033 0.655837 11.1998 1.76503C11.1912 4.76014 11.197 7.75525 11.197 10.7499C11.1964 13.745 11.1901 16.7402 11.1993 19.7353Z" fill="#1D242D"/>
<path fill-rule="evenodd" clip-rule="evenodd" d="M17.7333 21.4033C18.5026 21.4009 18.8998 20.864 18.9021 19.7916C18.9076 17.2905 18.8978 14.7897 18.9072 12.2886C18.9177 9.37023 21.0337 7.52186 23.8165 7.98726C24.5936 8.11685 25.2625 7.7004 25.3887 7.00791C25.5123 6.33067 25.0267 5.72244 24.2265 5.55233C20.4631 4.75151 16.8575 7.49618 16.5772 11.4421C16.4779 12.8447 16.5617 14.2618 16.5617 15.672C16.55 15.672 16.5387 15.672 16.5274 15.672C16.5274 17.051 16.5192 18.4295 16.5301 19.8081C16.5383 20.8616 16.9604 21.4057 17.7333 21.4033Z" fill="#1D242D"/>
<path fill-rule="evenodd" clip-rule="evenodd" d="M3.86058 11.8226C5.74151 11.3523 7.15794 12.7283 7.19409 15.0717C7.21878 16.6508 7.20769 18.2308 7.19659 19.8104C7.19051 20.7098 7.47143 21.3224 8.24728 21.3987C8.93045 21.4663 9.38351 20.8323 9.40569 19.8139C9.4243 18.9719 9.40963 18.129 9.40856 17.2866C9.40784 16.4793 9.43146 15.6706 9.4039 14.8646C9.26899 10.917 6.38352 8.19142 3.38497 9.16504C2.57083 9.42918 2.15642 10.0965 2.36327 10.892C2.59839 11.795 3.14234 12.0021 3.86058 11.8226Z" fill="#1D242D"/>
</g>
</g>
<defs>
<filter id="filter0_d_0_1" x="-49.2135" y="-26.5674" width="142.135" height="142.135" filterUnits="userSpaceOnUse" color-interpolation-filters="sRGB">
<feFlood flood-opacity="0" result="BackgroundImageFix"/>
<feColorMatrix in="SourceAlpha" type="matrix" values="0 0 0 0 0 0 0 0 0 0 0 0 0 0 0 0 0 0 127 0" result="hardAlpha"/>
<feOffset dy="3.55338"/>
<feGaussianBlur stdDeviation="7.10675"/>
<feComposite in2="hardAlpha" operator="out"/>
<feColorMatrix type="matrix" values="0 0 0 0 0 0 0 0 0 0 0 0 0 0 0 0 0 0 0.08 0"/>
<feBlend mode="normal" in2="BackgroundImageFix" result="effect1_dropShadow_0_1"/>
<feBlend mode="normal" in="SourceGraphic" in2="effect1_dropShadow_0_1" result="shape"/>
</filter>
<clipPath id="clip0_0_1">
<rect width="1920" height="3137" fill="white" transform="translate(-235 -1341)"/>
</clipPath>
</defs>
</svg>
