 <svg width="51" height="50" viewBox="0 0 51 50" fill="none" xmlns="http://www.w3.org/2000/svg">
<path d="M47.3573 24.4081L36.9104 13.4637C36.7114 13.2647 36.4129 13.1652 36.1642 13.1652H26.2147V3.71322C26.2147 3.31524 25.966 2.96701 25.6178 2.81777C25.2198 2.61878 24.8218 2.71828 24.5233 2.96701L13.5789 13.4139C13.3799 13.6129 13.2804 13.9114 13.2804 14.1601V24.1096H3.82846C3.43048 24.1096 3.08225 24.3583 2.93301 24.7066C2.73402 25.1045 2.83351 25.5025 3.08225 25.801L13.5292 36.7454C13.7282 36.9444 13.9769 37.0439 14.2754 37.0439H24.2248V46.4959C24.2248 46.8938 24.4736 47.2421 24.8218 47.3913C24.971 47.4908 25.0705 47.4908 25.2198 47.4908C25.4685 47.4908 25.7173 47.3913 25.9162 47.2421L36.8606 36.7952C37.0596 36.5962 37.1591 36.3474 37.1591 36.0489V26.0995H46.6111C47.0091 26.0995 47.3573 25.8508 47.5065 25.5025C47.7055 25.1045 47.606 24.7066 47.3573 24.4081ZM26.2147 15.1551H29.5975L26.7122 20.876C26.563 20.8263 26.364 20.7765 26.2147 20.7268V15.1551ZM15.2703 14.6079L24.2248 6.05134V20.7765C23.3791 20.9755 22.6329 21.3735 22.0857 21.9705L15.2703 18.5379V14.6079ZM15.2703 20.7268L20.9913 23.6121C20.9415 23.7614 20.8918 23.9604 20.842 24.1096H15.2703V20.7268ZM14.7231 35.054L6.16658 26.0995H20.8918C21.0908 26.9452 21.4887 27.6417 22.0857 28.2386L18.6531 35.054H14.7231ZM24.2248 35.054H20.842L23.7274 29.3331C23.8766 29.3828 24.0756 29.4326 24.2248 29.4823V35.054ZM25.2198 27.5919C23.8269 27.5919 22.7324 26.4975 22.7324 25.1045C22.7324 23.7116 23.8269 22.6172 25.2198 22.6172C26.6127 22.6172 27.7071 23.7116 27.7071 25.1045C27.7071 26.4975 26.6127 27.5919 25.2198 27.5919ZM35.1692 35.6012L26.2147 44.1577V29.4823C27.0604 29.2833 27.8066 28.8853 28.3539 28.2884L35.1692 31.6712V35.6012ZM35.1692 29.4823L29.4483 26.597C29.498 26.4477 29.5478 26.2487 29.5975 26.0995H35.1692V29.4823ZM29.5975 24.1096C29.3985 23.2639 29.0006 22.5177 28.4036 21.9705L31.7864 15.1551H35.7164L44.273 24.1096H29.5975Z" fill="black"/>
</svg>
