 <svg width="51" height="51" viewBox="0 0 51 51" fill="none" xmlns="http://www.w3.org/2000/svg">
<path d="M48.548 11.066L47.7707 10.6307C41.0231 6.77822 33.3875 4.75195 25.6176 4.75195C17.8477 4.75195 10.2121 6.77822 3.4645 10.6307L2.6872 11.066C2.51806 11.1628 2.39144 11.3196 2.33241 11.5053C2.27339 11.691 2.28627 11.8921 2.36851 12.0687L7.80961 23.7283C7.89446 23.9117 8.04743 24.0549 8.23607 24.1274C8.42471 24.2 8.6342 24.1962 8.82011 24.1169C9.48081 23.8371 10.1648 23.5728 10.8489 23.3396V43.6116C10.8494 43.7284 10.8762 43.8435 10.9274 43.9485C10.9785 44.0534 11.0526 44.1455 11.1442 44.2179C11.3075 44.3889 15.3572 47.4981 25.6176 47.4981C35.878 47.4981 39.9277 44.3889 40.0909 44.2179C40.1825 44.1455 40.2567 44.0534 40.3078 43.9485C40.3589 43.8435 40.3858 43.7284 40.3863 43.6116V23.3241C41.0703 23.5728 41.7466 23.8371 42.4151 24.1014C42.601 24.1807 42.8104 24.1844 42.9991 24.1119C43.1877 24.0393 43.3407 23.8961 43.4255 23.7127L48.8666 12.0532C48.9444 11.8783 48.9549 11.6808 48.8961 11.4987C48.8373 11.3165 48.7133 11.1625 48.548 11.066ZM25.6176 6.30116C27.4369 6.30258 29.2542 6.41941 31.0587 6.65095C31.0587 8.09402 30.4854 9.47799 29.465 10.4984C28.4446 11.5188 27.0606 12.0921 25.6176 12.0921C24.1745 12.0921 22.7905 11.5188 21.7701 10.4984C20.7497 9.47799 20.1765 8.09402 20.1765 6.65095C21.981 6.41941 23.7983 6.30258 25.6176 6.30116ZM42.3295 22.3991C41.6922 22.1426 41.0392 21.9094 40.3863 21.684V17.1834H38.8317V43.1996C37.7668 43.8603 33.7715 45.9435 25.6176 45.9435C17.4637 45.9435 13.4606 43.8603 12.4035 43.1996V17.1834H10.8489V21.684C10.1959 21.9094 9.54299 22.1426 8.90561 22.3991L4.08634 12.061L4.22626 11.9832C8.68279 9.43657 13.5576 7.70461 18.6219 6.86859C18.6219 8.72397 19.3589 10.5034 20.6709 11.8153C21.9828 13.1273 23.7622 13.8643 25.6176 13.8643C27.473 13.8643 29.2523 13.1273 30.5643 11.8153C31.8762 10.5034 32.6133 8.72397 32.6133 6.86859C37.6883 7.70104 42.5739 9.43311 47.04 11.9832L47.1799 12.061L42.3295 22.3991Z" fill="black"/>
<path d="M35.7233 17.1836H29.5049C29.2987 17.1836 29.101 17.2655 28.9552 17.4113C28.8095 17.557 28.7276 17.7547 28.7276 17.9609V23.402C28.7269 23.4865 28.74 23.5705 28.7664 23.6507C28.8053 23.7673 29.7536 26.5112 32.6141 26.5112C35.4745 26.5112 36.4228 23.7673 36.4617 23.6507C36.4881 23.5705 36.5012 23.4865 36.5006 23.402V17.9609C36.5006 17.7547 36.4187 17.557 36.2729 17.4113C36.1271 17.2655 35.9294 17.1836 35.7233 17.1836ZM34.946 23.2543C34.7878 23.7485 34.4766 24.1796 34.0575 24.4855C33.6384 24.7914 33.1329 24.9562 32.6141 24.9562C32.0952 24.9562 31.5897 24.7914 31.1706 24.4855C30.7515 24.1796 30.4404 23.7485 30.2822 23.2543V18.7382H34.946V23.2543Z" fill="black"/>
</svg>
