<svg width="47" height="49" viewBox="0 0 47 49" fill="none" xmlns="http://www.w3.org/2000/svg">
<g clip-path="url(#clip0_1_12892)" filter="url(#filter0_dd_1_12892)">
<path d="M41.8085 9.57934L23.5514 0.76558C23.3895 0.687515 23.2011 0.687515 23.0393 0.76558L4.78213 9.57934C4.57857 9.67759 4.44922 9.88375 4.44922 10.1098V31.5146C4.44922 31.7407 4.57857 31.9468 4.78213 32.0451L23.0392 40.8588C23.1201 40.8979 23.2077 40.9174 23.2953 40.9174C23.3829 40.9174 23.4704 40.8979 23.5514 40.8588L41.8085 32.0451C42.012 31.9468 42.1414 31.7407 42.1414 31.5146V10.1099C42.1414 9.88367 42.012 9.67767 41.8085 9.57934ZM23.2953 1.95014L40.1976 10.1098L35.2979 12.4751C35.2669 12.4515 35.2342 12.4296 35.1982 12.4123L18.4108 4.30817L23.2953 1.95014ZM17.0805 4.97416L33.9582 13.1219L30.5014 14.7907L13.6308 6.64626L17.0805 4.97416ZM34.3531 14.2393V20.408L31.1242 21.9668V15.7981L34.3531 14.2393ZM40.9634 31.145L23.8843 39.3899V19.2932L27.9582 17.3265C28.2512 17.1851 28.374 16.833 28.2325 16.54C28.0911 16.2471 27.739 16.1241 27.446 16.2656L23.2953 18.2695L21.6621 17.481C21.3691 17.3394 21.017 17.4624 20.8755 17.7553C20.7341 18.0483 20.8569 18.4004 21.1499 18.5419L22.7063 19.2932V39.3899L5.62726 31.1449V11.0482L18.6328 17.3267C18.7153 17.3666 18.8026 17.3855 18.8884 17.3855C19.1074 17.3855 19.3177 17.2628 19.4192 17.0524C19.5607 16.7595 19.4379 16.4073 19.1449 16.2659L6.39306 10.1098L12.2444 7.285L29.938 15.8268C29.9406 15.8304 29.9435 15.8336 29.9462 15.8372V22.9053C29.9462 23.108 30.0504 23.2964 30.2221 23.4042C30.3174 23.4641 30.4262 23.4943 30.5353 23.4943C30.6226 23.4943 30.7102 23.4749 30.7913 23.4357L35.1982 21.3083C35.4018 21.21 35.5311 21.004 35.5311 20.7778V13.6707L40.9634 11.0483V31.145Z" fill="#272343"/>
<path d="M10.4874 28.86L7.80815 27.5666C7.51506 27.425 7.16306 27.548 7.02162 27.8409C6.88017 28.1339 7.003 28.486 7.29594 28.6275L9.97519 29.9209C10.0577 29.9608 10.145 29.9796 10.2308 29.9796C10.4498 29.9796 10.6601 29.8569 10.7617 29.6465C10.9032 29.3535 10.7803 29.0015 10.4874 28.86Z" fill="#272343"/>
<path d="M12.9534 27.2556L7.81201 24.7736C7.51899 24.6321 7.16691 24.755 7.02547 25.048C6.88411 25.3409 7.00694 25.6931 7.29988 25.8345L12.4412 28.3166C12.5238 28.3564 12.611 28.3753 12.6969 28.3753C12.9158 28.3753 13.1261 28.2526 13.2277 28.0422C13.3691 27.7491 13.2463 27.397 12.9534 27.2556Z" fill="#272343"/>
</g>
<defs>
<filter id="filter0_dd_1_12892" x="-0.810547" y="0.707031" width="48.2109" height="48.21" filterUnits="userSpaceOnUse" color-interpolation-filters="sRGB">
<feFlood flood-opacity="0" result="BackgroundImageFix"/>
<feColorMatrix in="SourceAlpha" type="matrix" values="0 0 0 0 0 0 0 0 0 0 0 0 0 0 0 0 0 0 127 0" result="hardAlpha"/>
<feOffset dy="4"/>
<feGaussianBlur stdDeviation="2"/>
<feComposite in2="hardAlpha" operator="out"/>
<feColorMatrix type="matrix" values="0 0 0 0 0 0 0 0 0 0 0 0 0 0 0 0 0 0 0.25 0"/>
<feBlend mode="normal" in2="BackgroundImageFix" result="effect1_dropShadow_1_12892"/>
<feColorMatrix in="SourceAlpha" type="matrix" values="0 0 0 0 0 0 0 0 0 0 0 0 0 0 0 0 0 0 127 0" result="hardAlpha"/>
<feOffset dy="4"/>
<feGaussianBlur stdDeviation="2"/>
<feComposite in2="hardAlpha" operator="out"/>
<feColorMatrix type="matrix" values="0 0 0 0 0 0 0 0 0 0 0 0 0 0 0 0 0 0 0.25 0"/>
<feBlend mode="normal" in2="effect1_dropShadow_1_12892" result="effect2_dropShadow_1_12892"/>
<feBlend mode="normal" in="SourceGraphic" in2="effect2_dropShadow_1_12892" result="shape"/>
</filter>
<clipPath id="clip0_1_12892">
<rect width="40.2103" height="40.2103" fill="white" transform="translate(3.18945 0.707031)"/>
</clipPath>
</defs>
</svg>
