 <svg width="57" height="34" viewBox="0 0 57 34" fill="none" xmlns="http://www.w3.org/2000/svg">
<path d="M12.9141 26.5215C11.9792 26.5215 11.2188 27.282 11.2188 28.2169C11.2188 29.1518 11.9792 29.9123 12.9141 29.9123C13.849 29.9123 14.6095 29.1518 14.6095 28.2169C14.6095 27.282 13.849 26.5215 12.9141 26.5215Z" fill="#272343"/>
<path d="M47.9513 26.5215C47.0164 26.5215 46.2559 27.282 46.2559 28.2169C46.2559 29.1518 47.0164 29.9123 47.9513 29.9123C48.8861 29.9123 49.6466 29.1518 49.6466 28.2169C49.6466 27.282 48.8861 26.5215 47.9513 26.5215Z" fill="#272343"/>
<path d="M54.8956 15.6531L48.5861 13.5499L45.6371 5.44035C45.2689 4.42798 44.2979 3.7478 43.2206 3.7478H35.6322V1.93953C35.6322 1.00464 34.8717 0.244141 33.9368 0.244141H2.40437C1.46948 0.244141 0.708984 1.00475 0.708984 1.93964V25.589C0.708984 26.5239 1.46948 27.2844 2.40437 27.2844H7.80152C7.74645 27.5871 7.71618 27.8984 7.71618 28.2167C7.71618 31.0834 10.0485 33.4157 12.9152 33.4157C15.782 33.4157 18.1143 31.0834 18.1143 28.2167C18.1143 27.8983 18.084 27.5871 18.0289 27.2844H42.8377C42.7827 27.5871 42.7524 27.8984 42.7524 28.2167C42.7524 31.0834 45.0847 33.4157 47.9514 33.4157C50.8182 33.4157 53.1505 31.0834 53.1505 28.2167C53.1505 27.8117 53.1024 27.4179 53.0144 27.0394L54.7486 26.1724C55.9237 25.5846 56.6538 24.4031 56.6538 23.089V18.0925C56.6538 16.9841 55.9473 16.0038 54.8956 15.6531ZM2.34799 1.93964C2.34799 1.9085 2.37323 1.88315 2.40437 1.88315H33.9368C33.968 1.88315 33.9932 1.90839 33.9932 1.93953V19.514H2.34799V1.93964ZM12.9151 31.7767C10.9521 31.7767 9.35508 30.1796 9.35508 28.2167C9.35508 26.2537 10.9521 24.6566 12.9151 24.6566C14.8781 24.6566 16.4752 26.2537 16.4752 28.2167C16.4753 30.1796 14.8782 31.7767 12.9151 31.7767ZM33.9932 25.6453H17.431C16.5347 24.0774 14.8469 23.0176 12.9151 23.0176C10.9834 23.0176 9.29564 24.0774 8.39932 25.6453H2.40437C2.37323 25.6453 2.34799 25.62 2.34799 25.5889V21.153H33.9932V25.6453ZM45.1478 8.89046L46.7813 13.3828H45.0217L43.3881 8.89046H45.1478ZM35.6322 5.3868H43.2206C43.6112 5.3868 43.9633 5.63342 44.0968 6.00045L44.5517 7.25134H35.6322V5.3868ZM35.6322 8.89046H41.6441L43.2776 13.3828H35.6322V8.89046ZM47.9512 31.7767C45.9882 31.7767 44.3912 30.1796 44.3912 28.2167C44.3912 26.2537 45.9882 24.6566 47.9512 24.6566C49.9142 24.6566 51.5113 26.2537 51.5113 28.2167C51.5113 30.1796 49.9142 31.7767 47.9512 31.7767ZM55.0148 19.5139H54.0825C53.6299 19.5139 53.263 19.8808 53.263 20.3334C53.263 20.7859 53.6299 21.1529 54.0825 21.1529H55.0148V23.0889C55.0148 23.7783 54.6318 24.398 54.0153 24.7063L52.393 25.5174C51.4796 24.0197 49.8303 23.0176 47.9512 23.0176C46.0195 23.0176 44.3317 24.0774 43.4354 25.6453H35.6322V21.153H50.579C51.0316 21.153 51.3985 20.7861 51.3985 20.3335C51.3985 19.8809 51.0316 19.514 50.579 19.514H35.6322V15.0217H47.8182L54.3773 17.208C54.7587 17.3351 55.0148 17.6905 55.0148 18.0924V19.5139Z" fill="#272343"/>
<path d="M28.2127 9.98664L22.0814 6.4831C21.6886 6.25855 21.1879 6.39514 20.9633 6.78806C20.7387 7.1811 20.8752 7.68165 21.2682 7.90619L24.7202 9.87879H8.5363C8.08372 9.87879 7.7168 10.2457 7.7168 10.6983C7.7168 11.1509 8.08372 11.5177 8.5363 11.5177H24.7202L21.2682 13.4903C20.8753 13.7148 20.7387 14.2154 20.9633 14.6084C21.1145 14.8731 21.391 15.0215 21.6756 15.0215C21.8135 15.0215 21.9532 14.9866 22.0814 14.9133L28.2127 11.4097C28.468 11.2639 28.6256 10.9923 28.6256 10.6982C28.6256 10.404 28.4681 10.1326 28.2127 9.98664Z" fill="#272343"/>
</svg>
