<svg width="45" height="45" viewBox="0 0 45 45" fill="none" xmlns="http://www.w3.org/2000/svg">
<rect width="45" height="45" fill="#F5F5F5"/>
<g id="Frame 1597881311">
<rect width="1920" height="4178" transform="translate(-940 -1159)" fill="#FDFDFD"/>
</g>
<g id="Feature" filter="url(#filter0_d_0_1)">
<rect x="-573" y="-43" width="1153.86" height="131.121" rx="10.4897" fill="white"/>
<g id="Frame 6">
<g id="24-hours" clip-path="url(#clip0_0_1)">
<g id="Group">
<g id="Group_2">
<path id="Vector" d="M42.5673 13.1938C42.4156 12.8744 42.0334 12.7385 41.7143 12.8902C41.3949 13.0419 41.259 13.4239 41.4106 13.7433C42.7242 16.5084 43.3903 19.4748 43.3903 22.5601C43.3903 28.0554 41.2503 33.2217 37.3646 37.1075C33.4789 40.9932 28.3126 43.1331 22.8173 43.1331C19.5583 43.1331 16.4416 42.3935 13.5541 40.9349C11.148 39.7195 8.97439 38.0131 7.20938 35.9626L9.73542 36.8047C10.0708 36.9165 10.4334 36.7352 10.5453 36.3997C10.6571 36.0642 10.4758 35.7017 10.1403 35.5898L5.59462 34.0746C5.38411 34.0045 5.15225 34.0482 4.98195 34.1904C4.81165 34.3327 4.72705 34.5529 4.75838 34.7726L5.51599 40.0759C5.56167 40.3952 5.83552 40.6256 6.14906 40.6256C6.1792 40.6256 6.20967 40.6235 6.2404 40.6191C6.59048 40.5691 6.83369 40.2448 6.78367 39.8948L6.36094 36.9358C8.21327 39.0511 10.4761 40.8146 12.9768 42.0778C16.045 43.6277 19.3558 44.4136 22.8173 44.4136C28.6545 44.4136 34.1425 42.1404 38.2701 38.0129C42.3976 33.8853 44.6707 28.3974 44.6707 22.5601C44.6707 19.2832 43.9631 16.132 42.5673 13.1938Z" fill="#272343"/>
</g>
</g>
<g id="Group_3">
<g id="Group_4">
<path id="Vector_2" d="M40.8753 10.3482L40.1177 5.04486C40.0677 4.69477 39.7426 4.45174 39.3934 4.50159C39.0433 4.55162 38.8001 4.87592 38.8501 5.22591L39.2724 8.18194C35.1147 3.41823 29.1793 0.707031 22.8163 0.707031C16.9791 0.707031 11.4912 2.98022 7.36356 7.1077C3.23608 11.2354 0.962891 16.7232 0.962891 22.5605C0.962891 25.8375 1.67065 28.9888 3.06637 31.9268C3.17598 32.1576 3.40561 32.2925 3.64515 32.2925C3.73717 32.2925 3.83073 32.2725 3.91942 32.2304C4.23877 32.0787 4.37467 31.6968 4.22298 31.3773C2.90938 28.6124 2.24337 25.646 2.24337 22.5605C2.24337 17.0652 4.3833 11.8989 8.26903 8.01317C12.1548 4.12744 17.3211 1.98751 22.8163 1.98751C28.865 1.98751 34.5031 4.59063 38.4224 9.1574L35.8983 8.31604C35.5626 8.20404 35.2002 8.38553 35.0884 8.72101C34.9767 9.0565 35.1578 9.41905 35.4933 9.53087L40.039 11.0461C40.1052 11.0681 40.1735 11.079 40.2414 11.079C40.3892 11.079 40.5349 11.0277 40.6517 10.9303C40.822 10.788 40.9066 10.5678 40.8753 10.3482Z" fill="#272343"/>
</g>
</g>
<g id="Group_5">
<g id="Group_6">
<path id="Vector_3" d="M21.0382 29.4471H14.5979C14.8551 27.2063 16.4474 25.7028 18.1249 24.119C19.8719 22.4694 21.6784 20.7636 21.6784 18.2022C21.6784 16.1016 19.7949 14.3926 17.4798 14.3926C15.1647 14.3926 13.2812 16.1016 13.2812 18.2022C13.2812 18.5557 13.5679 18.8424 13.9215 18.8424C14.2751 18.8424 14.5617 18.5557 14.5617 18.2022C14.5617 16.8076 15.8707 15.6731 17.4798 15.6731C19.089 15.6731 20.398 16.8076 20.398 18.2022C20.398 20.2117 18.8668 21.6574 17.2458 23.188C15.3875 24.9426 13.2812 26.9313 13.2812 30.0874C13.2812 30.4409 13.5679 30.7276 13.9215 30.7276H21.0382C21.3918 30.7276 21.6784 30.4409 21.6784 30.0874C21.6784 29.7338 21.3918 29.4471 21.0382 29.4471Z" fill="#272343"/>
</g>
</g>
<g id="Group_7">
<g id="Group_8">
<path id="Vector_4" d="M31.713 25.3412H30.9847V15.0328C30.9847 14.6792 30.6981 14.3926 30.3445 14.3926C29.9908 14.3926 29.7042 14.6792 29.7042 15.0328V25.3413H24.273L26.1836 15.1509C26.2488 14.8034 26.0199 14.4687 25.6724 14.4036C25.3252 14.3388 24.9904 14.5673 24.9252 14.9148L22.8723 25.8636C22.8372 26.0508 22.8872 26.2439 23.0089 26.3905C23.1305 26.537 23.3111 26.6218 23.5015 26.6218H29.7042V30.0874C29.7042 30.4409 29.9908 30.7275 30.3445 30.7275C30.6981 30.7275 30.9847 30.4409 30.9847 30.0873V26.6217H31.713C32.0667 26.6217 32.3533 26.3351 32.3533 25.9815C32.3533 25.6279 32.0667 25.3412 31.713 25.3412Z" fill="#272343"/>
</g>
</g>
<g id="Group_9">
<g id="Group_10">
<path id="Vector_5" d="M22.816 4.12891C22.4624 4.12891 22.1758 4.41556 22.1758 4.76914V7.50629C22.1758 7.85987 22.4624 8.14653 22.816 8.14653C23.1697 8.14653 23.4563 7.85987 23.4563 7.50629V4.76914C23.4563 4.41556 23.1697 4.12891 22.816 4.12891Z" fill="#272343"/>
</g>
</g>
<g id="Group_11">
<g id="Group_12">
<path id="Vector_6" d="M22.816 36.9746C22.4624 36.9746 22.1758 37.2613 22.1758 37.6148V40.352C22.1758 40.7056 22.4624 40.9922 22.816 40.9922C23.1697 40.9922 23.4563 40.7056 23.4563 40.352V37.6148C23.4563 37.2613 23.1697 36.9746 22.816 36.9746Z" fill="#272343"/>
</g>
</g>
<g id="Group_13">
<g id="Group_14">
<path id="Vector_7" d="M40.6079 21.9199H37.8707C37.517 21.9199 37.2305 22.2066 37.2305 22.5602C37.2305 22.9137 37.517 23.2004 37.8707 23.2004H40.6079C40.9615 23.2004 41.2481 22.9137 41.2481 22.5602C41.2481 22.2066 40.9615 21.9199 40.6079 21.9199Z" fill="#272343"/>
</g>
</g>
<g id="Group_15">
<g id="Group_16">
<path id="Vector_8" d="M7.76215 21.9199H5.025C4.67142 21.9199 4.38477 22.2066 4.38477 22.5602C4.38477 22.9137 4.67142 23.2004 5.025 23.2004H7.76215C8.11573 23.2004 8.40239 22.9137 8.40239 22.5602C8.40239 22.2066 8.11573 21.9199 7.76215 21.9199Z" fill="#272343"/>
</g>
</g>
</g>
</g>
</g>
<defs>
<filter id="filter0_d_0_1" x="-660.414" y="-109.434" width="1328.69" height="305.949" filterUnits="userSpaceOnUse" color-interpolation-filters="sRGB">
<feFlood flood-opacity="0" result="BackgroundImageFix"/>
<feColorMatrix in="SourceAlpha" type="matrix" values="0 0 0 0 0 0 0 0 0 0 0 0 0 0 0 0 0 0 127 0" result="hardAlpha"/>
<feOffset dy="20.9793"/>
<feGaussianBlur stdDeviation="43.7069"/>
<feColorMatrix type="matrix" values="0 0 0 0 0.0864931 0 0 0 0 0.0974271 0 0 0 0 0.195833 0 0 0 0.07 0"/>
<feBlend mode="normal" in2="BackgroundImageFix" result="effect1_dropShadow_0_1"/>
<feBlend mode="normal" in="SourceGraphic" in2="effect1_dropShadow_0_1" result="shape"/>
</filter>
<clipPath id="clip0_0_1">
<rect width="43.7069" height="43.7069" fill="white" transform="translate(0.962891 0.707031)"/>
</clipPath>
</defs>
</svg>
