<svg width="45" height="45" viewBox="0 0 45 45" fill="none" xmlns="http://www.w3.org/2000/svg">
<g id="shield" clip-path="url(#clip0_1_12953)">
<g id="Group">
<g id="Group_2">
<path id="Vector" d="M44.0034 6.78764C43.9884 6.51071 43.7969 6.27485 43.5288 6.20348L22.9818 0.728607C22.8736 0.699839 22.7599 0.699839 22.6518 0.728607L2.13678 6.20357C1.86925 6.27502 1.67786 6.51028 1.6625 6.78678C1.64824 7.04288 1.34169 13.1487 3.74275 20.8681C5.15392 25.4049 7.21394 29.5471 9.86572 33.1799C13.1828 37.7242 17.4374 41.4761 22.5112 44.3316C22.6086 44.3864 22.7168 44.4139 22.8251 44.4139C22.9283 44.4139 23.0315 44.389 23.1254 44.3391C28.2077 41.6396 32.4694 37.9829 35.7919 33.4706C38.4466 29.865 40.509 25.7106 41.9216 21.1227C44.3239 13.3201 44.0176 7.05082 44.0034 6.78764ZM40.6844 20.7891C39.3117 25.2317 37.3133 29.2502 34.7445 32.7333C31.7482 36.7959 27.9595 40.1399 23.4733 42.6863V39.3925C29.2891 35.7209 33.6753 30.5233 36.5107 23.9374C38.8454 18.5147 39.6062 13.3672 39.8332 10.0038C39.8539 9.69824 39.6552 9.4208 39.3592 9.34201L38.0535 8.99415C37.712 8.90315 37.3611 9.10623 37.27 9.44803C37.179 9.78966 37.3821 10.1406 37.7239 10.2316L38.5166 10.4429C38.254 13.7035 37.4792 18.4495 35.3345 23.431C32.6185 29.7397 28.4307 34.724 22.8836 38.2519C22.3268 37.8838 21.7792 37.4995 21.2515 37.1067C20.968 36.8955 20.5668 36.9541 20.3555 37.2378C20.1443 37.5214 20.203 37.9226 20.4866 38.1338C21.038 38.5444 21.6107 38.9447 22.1926 39.3289V42.6654C17.7043 39.9805 13.9146 36.5478 10.9174 32.4486C8.34938 28.9362 6.35167 24.9272 4.97969 20.533C3.00494 14.2078 2.9084 8.87574 2.92888 7.31758L22.1926 2.17657V5.10108L6.31573 9.33825C6.01901 9.41747 5.82028 9.69619 5.84213 10.0026C6.00748 12.3165 6.47289 15.9166 7.75157 19.9278C9.86546 26.5591 13.4158 32.0913 18.3039 36.3709C18.4253 36.4773 18.5757 36.5294 18.7255 36.5294C18.9036 36.5294 19.0809 36.4555 19.2075 36.3109C19.4405 36.0448 19.4136 35.6403 19.1475 35.4074C14.4374 31.2838 11.0138 25.9448 8.97169 19.5389C7.82456 15.9404 7.35215 12.683 7.16085 10.4383L22.8179 6.25991L34.9563 9.4943C35.298 9.58521 35.6489 9.38221 35.7399 9.04041C35.8309 8.69878 35.6278 8.34785 35.286 8.25685L23.4732 5.10919V2.18485L42.7367 7.31784C42.7579 8.90263 42.6655 14.3775 40.6844 20.7891Z" fill="#272343"/>
</g>
</g>
<g id="Group_3">
<g id="Group_4">
<path id="Vector_2" d="M32.4652 15.668C32.0859 15.2882 31.5813 15.0791 31.0444 15.0791C30.5074 15.0791 30.0028 15.2882 29.6238 15.6677L21.4632 23.828L17.008 19.3731C16.6289 18.9934 16.1242 18.7843 15.5873 18.7843C15.0502 18.7843 14.5457 18.9933 14.1669 19.3727C13.7874 19.7521 13.5781 20.2567 13.5781 20.7934C13.5781 21.3302 13.7872 21.8346 14.1667 22.2139L20.0423 28.0896C20.4216 28.4693 20.9261 28.6784 21.4631 28.6784C22.0001 28.6784 22.5046 28.4693 22.8837 28.0898L32.4647 18.5088C32.8443 18.1295 33.0534 17.6249 33.0534 17.0882C33.0534 16.5514 32.8444 16.0469 32.4652 15.668ZM31.5593 17.6031L21.9779 27.1845C21.8406 27.322 21.6578 27.3977 21.4631 27.3977C21.2684 27.3977 21.0856 27.322 20.9481 27.1843L15.0721 21.3082C14.9346 21.1707 14.8588 20.988 14.8588 20.7933C14.8588 20.5987 14.9346 20.416 15.0725 20.278C15.2098 20.1406 15.3926 20.0648 15.5873 20.0648C15.7818 20.0648 15.9646 20.1406 16.1023 20.2782L21.0105 25.1861C21.2605 25.4362 21.666 25.4361 21.916 25.1861L30.5297 16.5727C30.667 16.4353 30.8498 16.3596 31.0445 16.3596C31.2391 16.3596 31.4218 16.4353 31.5596 16.5732C31.6971 16.7106 31.7729 16.8934 31.7729 17.088C31.7729 17.2825 31.697 17.4655 31.5593 17.6031Z" fill="#272343"/>
</g>
</g>
</g>
<defs>
<clipPath id="clip0_1_12953">
<rect width="43.7069" height="43.7069" fill="white" transform="translate(0.978516 0.707031)"/>
</clipPath>
</defs>
</svg>
